<svg width="251" height="160" viewBox="0 0 251 160" fill="none" xmlns="http://www.w3.org/2000/svg">
<g clip-path="url(#clip0_2_23)">
<mask id="mask0_2_23" style="mask-type:luminance" maskUnits="userSpaceOnUse" x="0" y="0" width="251" height="160">
<path d="M245 0H6C2.68629 0 0 2.68629 0 6V154C0 157.314 2.68629 160 6 160H245C248.314 160 251 157.314 251 154V6C251 2.68629 248.314 0 245 0Z" fill="white"/>
</mask>
<g mask="url(#mask0_2_23)">
<path d="M245 0H6C2.68629 0 0 2.68629 0 6V154C0 157.314 2.68629 160 6 160H245C248.314 160 251 157.314 251 154V6C251 2.68629 248.314 0 245 0Z" fill="white" fill-opacity="0.02"/>
<mask id="mask1_2_23" style="mask-type:luminance" maskUnits="userSpaceOnUse" x="0" y="0" width="251" height="160">
<path d="M251 0H0V160H251V0Z" fill="white"/>
</mask>
<g mask="url(#mask1_2_23)">
<g opacity="0.5" filter="url(#filter0_f_2_23)">
<path d="M-7.51678 0H260.167C300.754 0 333.566 12.9914 333.566 29.0598V130.94C333.566 147.009 300.754 160 260.167 160H-7.51678C-48.1015 160 -80.9144 147.009 -80.9144 130.94V29.0598C-80.9144 12.9914 -48.1015 0 -7.51678 0Z" fill="#330000"/>
<path d="M79.9287 95.9999H28.4819L17.9714 112.068C17.6947 112.684 16.5883 113.094 15.3436 113.026H-10.6562C-12.1776 113.026 -12.5925 112.615 -12.1776 111.795L32.3536 48.4102C32.7684 47.7264 33.1833 46.9742 33.738 46.1537C34.2904 44.7179 34.5678 43.2135 34.5678 41.7093C34.428 41.3674 34.9827 41.0256 35.6727 40.9572C35.8124 40.9572 35.95 40.9572 36.0876 40.9572H71.4933C72.5982 40.9572 73.1528 41.1623 73.2904 41.5042L123.77 111.932C124.185 112.684 123.77 113.026 122.385 113.026H93.4826C92.5131 113.094 91.5457 112.752 91.2684 112.273L79.9287 95.9999ZM36.5025 82.1196H71.6308C70.801 80.6836 69.6939 78.9742 68.4493 77.1965C67.2046 75.3504 65.9599 73.3674 64.7152 71.3161C63.333 69.1965 62.0883 67.1452 60.706 65.0256C59.3216 62.9058 58.0769 60.923 56.972 58.9401C55.8649 57.0256 54.8975 55.2478 53.928 53.6067H53.6528C52.4082 56.5469 50.8862 59.4871 48.9493 62.4273C46.8748 65.7093 44.8003 69.1281 42.5883 72.5469C40.6514 76.0341 38.577 79.2478 36.5025 82.1196Z" fill="#FF9A00"/>
<path d="M153.919 52.6495C149.356 52.7179 144.929 51.8289 141.61 50.2563C138.429 48.5469 136.769 46.2905 136.909 43.9658C136.769 41.641 138.568 39.4529 141.887 37.8803C145.207 36.3076 149.631 35.4871 154.194 35.4871C159.588 35.4871 163.737 36.3076 166.781 37.8803C169.823 39.5212 171.482 41.7093 171.345 43.9658C171.482 46.2905 169.823 48.5469 166.504 50.2563C163.322 51.8974 158.621 52.7862 153.919 52.6495ZM138.429 112V59.3504C138.429 58.6666 138.983 58.3931 140.228 58.3931H167.611C168.855 58.3931 169.408 58.735 169.408 59.3504V112C169.408 112.752 168.855 113.094 167.611 113.094H140.503C139.121 113.094 138.429 112.684 138.429 112Z" fill="#FF9A00"/>
</g>
</g>
<mask id="mask2_2_23" style="mask-type:luminance" maskUnits="userSpaceOnUse" x="89" y="46" width="72" height="68">
<path d="M161 46H89V114H161V46Z" fill="white"/>
</mask>
<g mask="url(#mask2_2_23)">
<path d="M101.75 46H148.25C155.3 46 161 51.5214 161 58.3504V101.65C161 108.479 155.3 114 148.25 114H101.75C94.7 114 89 108.479 89 101.65V58.3504C89 51.5214 94.7 46 101.75 46Z" fill="#330000"/>
<path d="M101.75 47H148.25C154.778 47 160 52.1034 160 58.3504V101.65C160 107.897 154.778 113 148.25 113H101.75C95.222 113 90 107.897 90 101.65V58.3504C90 52.1034 95.222 47 101.75 47Z" stroke="white" stroke-opacity="0.05" stroke-width="2"/>
<path d="M123.891 86.8H112.731L110.451 93.629C110.391 93.8906 110.151 94.0649 109.881 94.0359H104.241C103.911 94.0359 103.821 93.8615 103.911 93.5128L113.571 66.5743C113.661 66.2837 113.751 65.9641 113.871 65.6153C113.991 65.0051 114.051 64.3658 114.051 63.7265C114.021 63.5812 114.141 63.4359 114.291 63.4068C114.321 63.4068 114.351 63.4068 114.381 63.4068H122.061C122.301 63.4068 122.421 63.494 122.451 63.6393L133.401 93.5709C133.491 93.8906 133.401 94.0359 133.101 94.0359H126.831C126.621 94.0649 126.411 93.9196 126.351 93.7162L123.891 86.8ZM114.471 80.9008H122.091C121.911 80.2906 121.671 79.5641 121.401 78.8085C121.131 78.0239 120.861 77.1812 120.591 76.3094C120.291 75.4085 120.021 74.5367 119.721 73.6359C119.421 72.735 119.151 71.8923 118.911 71.0495C118.671 70.2359 118.461 69.4803 118.251 68.7829H118.191C117.921 70.0324 117.591 71.282 117.171 72.5316C116.721 73.9265 116.271 75.3794 115.791 76.8324C115.371 78.3145 114.921 79.6803 114.471 80.9008Z" fill="#FF9A00"/>
<path d="M139.941 68.376C138.951 68.4051 137.991 68.0273 137.271 67.3589C136.581 66.6324 136.221 65.6735 136.251 64.6854C136.221 63.6974 136.611 62.7675 137.331 62.0991C138.051 61.4307 139.011 61.082 140.001 61.082C141.171 61.082 142.071 61.4307 142.731 62.0991C143.391 62.7965 143.751 63.7265 143.721 64.6854C143.751 65.6735 143.391 66.6324 142.671 67.3589C141.981 68.0564 140.961 68.4341 139.941 68.376ZM136.581 93.6V71.2239C136.581 70.9333 136.701 70.8171 136.971 70.8171H142.911C143.181 70.8171 143.301 70.9624 143.301 71.2239V93.6C143.301 93.9196 143.181 94.0649 142.911 94.0649H137.031C136.731 94.0649 136.581 93.8906 136.581 93.6Z" fill="#FF9A00"/>
</g>
</g>
</g>
<defs>
<filter id="filter0_f_2_23" x="-230.914" y="-150" width="714.48" height="460" filterUnits="userSpaceOnUse" color-interpolation-filters="sRGB">
<feFlood flood-opacity="0" result="BackgroundImageFix"/>
<feBlend mode="normal" in="SourceGraphic" in2="BackgroundImageFix" result="shape"/>
<feGaussianBlur stdDeviation="75" result="effect1_foregroundBlur_2_23"/>
</filter>
<clipPath id="clip0_2_23">
<rect width="251" height="160" fill="white"/>
</clipPath>
</defs>
</svg>
