<svg width="251" height="160" viewBox="0 0 251 160" fill="none" xmlns="http://www.w3.org/2000/svg">
<g clip-path="url(#clip0_42_9)">
<rect width="251" height="160" rx="6" fill="white" fill-opacity="0.02"/>
<path d="M125.5 85.8542C125.032 85.8541 124.572 85.731 124.167 85.4974L100.167 71.638C98.891 70.9012 98.4541 69.2697 99.191 67.9939C99.425 67.5888 99.7615 67.2523 100.167 67.0182L124.167 53.1693C124.992 52.6953 126.008 52.6953 126.833 53.1693L150.833 67.0182C152.109 67.7551 152.546 69.3866 151.809 70.6623C151.575 71.0675 151.239 71.404 150.833 71.638L126.833 85.4974C126.428 85.731 125.968 85.8541 125.5 85.8542Z" fill="#C1C0FF"/>
<path d="M150.833 77.6849L145.596 74.6626L126.833 85.4974C126.008 85.9731 124.992 85.9731 124.167 85.4974L105.404 74.6626L100.167 77.6849C98.891 78.4218 98.4541 80.0533 99.191 81.329C99.425 81.7342 99.7615 82.0707 100.167 82.3047L124.167 96.1641C124.992 96.6397 126.008 96.6397 126.833 96.1641L150.833 82.3047C152.109 81.5678 152.546 79.9363 151.809 78.6606C151.575 78.2554 151.239 77.9189 150.833 77.6849Z" fill="#605FBE"/>
<path d="M150.833 88.3516L145.596 85.3293L126.833 96.1641C126.008 96.6397 124.992 96.6397 124.167 96.1641L105.404 85.3293L100.167 88.3516C98.891 89.0884 98.4541 90.7199 99.191 91.9957C99.425 92.4008 99.7615 92.7373 100.167 92.9714L124.167 106.831C124.992 107.306 126.008 107.306 126.833 106.831L150.833 92.9714C152.109 92.2345 152.546 90.603 151.809 89.3273C151.575 88.9221 151.239 88.5856 150.833 88.3516Z" fill="#007CFF"/>
<g filter="url(#filter0_f_42_9)">
<path d="M125.5 89.9215C124.747 89.9214 124.007 89.7234 123.354 89.3474L84.7292 67.0424C82.6761 65.8566 81.973 63.2308 83.1589 61.1778C83.5355 60.5257 84.0771 59.9841 84.7292 59.6075L123.354 37.3193C124.683 36.5565 126.317 36.5565 127.646 37.3193L166.271 59.6075C168.324 60.7934 169.027 63.4191 167.841 65.4722C167.465 66.1243 166.923 66.6658 166.271 67.0424L127.646 89.3474C126.993 89.7234 126.253 89.9214 125.5 89.9215Z" fill="#C1C0FF"/>
<path d="M166.271 76.7741L157.842 71.9101L127.646 89.3474C126.318 90.1129 124.682 90.1129 123.354 89.3474L93.1585 71.9101L84.7292 76.7741C82.6761 77.96 81.973 80.5857 83.1589 82.6388C83.5355 83.2909 84.0771 83.8325 84.7292 84.2091L123.354 106.514C124.682 107.28 126.318 107.28 127.646 106.514L166.271 84.2091C168.324 83.0232 169.027 80.3975 167.841 78.3444C167.465 77.6924 166.923 77.1508 166.271 76.7741Z" fill="#605FBE"/>
<path d="M166.271 93.9408L157.842 89.0768L127.646 106.514C126.318 107.28 124.682 107.28 123.354 106.514L93.1585 89.0768L84.7292 93.9408C82.6761 95.1267 81.973 97.7524 83.1589 99.8055C83.5355 100.458 84.0771 100.999 84.7292 101.376L123.354 123.681C124.682 124.446 126.318 124.446 127.646 123.681L166.271 101.376C168.324 100.19 169.027 97.5642 167.841 95.5111C167.465 94.859 166.923 94.3175 166.271 93.9408Z" fill="#007CFF"/>
</g>
</g>
<defs>
<filter id="filter0_f_42_9" x="-86" y="-131" width="423" height="423" filterUnits="userSpaceOnUse" color-interpolation-filters="sRGB">
<feFlood flood-opacity="0" result="BackgroundImageFix"/>
<feBlend mode="normal" in="SourceGraphic" in2="BackgroundImageFix" result="shape"/>
<feGaussianBlur stdDeviation="80" result="effect1_foregroundBlur_42_9"/>
</filter>
<clipPath id="clip0_42_9">
<rect width="251" height="160" rx="6" fill="white"/>
</clipPath>
</defs>
</svg>
