<svg width="65" height="64" viewBox="0 0 65 64" fill="none" xmlns="http://www.w3.org/2000/svg">
<path d="M32.5 37.8542C32.032 37.8541 31.5722 37.731 31.1667 37.4974L7.16666 23.638C5.89096 22.9012 5.4541 21.2697 6.19096 19.9939C6.42498 19.5888 6.76149 19.2523 7.16666 19.0182L31.1667 5.16928C31.9924 4.6953 33.0076 4.6953 33.8333 5.16928L57.8333 19.0182C59.1091 19.7551 59.5459 21.3866 58.809 22.6623C58.575 23.0675 58.2385 23.404 57.8333 23.638L33.8333 37.4974C33.4278 37.731 32.968 37.8541 32.5 37.8542Z" fill="#C1C0FF"/>
<path d="M57.8333 29.6849L52.5957 26.6626L33.8333 37.4974C33.0081 37.9731 31.9919 37.9731 31.1667 37.4974L12.4043 26.6626L7.16666 29.6849C5.89096 30.4218 5.4541 32.0533 6.19096 33.329C6.42498 33.7342 6.76149 34.0707 7.16666 34.3047L31.1667 48.1641C31.9919 48.6397 33.0081 48.6397 33.8333 48.1641L57.8333 34.3047C59.1091 33.5678 59.5459 31.9363 58.809 30.6606C58.575 30.2554 58.2385 29.9189 57.8333 29.6849Z" fill="#605FBE"/>
<path d="M57.8333 40.3516L52.5957 37.3293L33.8333 48.1641C33.0081 48.6397 31.9919 48.6397 31.1667 48.1641L12.4043 37.3293L7.16666 40.3516C5.89096 41.0884 5.4541 42.7199 6.19096 43.9957C6.42498 44.4008 6.76149 44.7373 7.16666 44.9714L31.1667 58.8307C31.9919 59.3064 33.0081 59.3064 33.8333 58.8307L57.8333 44.9714C59.1091 44.2345 59.5459 42.603 58.809 41.3273C58.575 40.9221 58.2385 40.5856 57.8333 40.3516Z" fill="#007CFF"/>
</svg>
