<svg width="251" height="160" viewBox="0 0 251 160" fill="none" xmlns="http://www.w3.org/2000/svg">
<g clip-path="url(#clip0_2_351)">
<rect width="251" height="160" rx="6" fill="white" fill-opacity="0.02"/>
<g filter="url(#filter0_f_2_351)">
<path d="M125.5 89.9215C124.747 89.9214 124.007 89.7233 123.354 89.3474L84.7292 67.0424C82.6761 65.8566 81.973 63.2308 83.1589 61.1778C83.5355 60.5257 84.0771 59.9841 84.7292 59.6075L123.354 37.3193C124.683 36.5565 126.317 36.5565 127.646 37.3193L166.271 59.6075C168.324 60.7934 169.027 63.4191 167.841 65.4722C167.465 66.1242 166.923 66.6658 166.271 67.0424L127.646 89.3474C126.993 89.7233 126.253 89.9214 125.5 89.9215Z" fill="#C1C0FF"/>
<path d="M166.271 76.7741L157.842 71.9101L127.646 89.3474C126.318 90.1129 124.682 90.1129 123.354 89.3474L93.1585 71.9101L84.7292 76.7741C82.6761 77.96 81.973 80.5857 83.1589 82.6388C83.5355 83.2909 84.0771 83.8325 84.7292 84.2091L123.354 106.514C124.682 107.28 126.318 107.28 127.646 106.514L166.271 84.2091C168.324 83.0232 169.027 80.3975 167.841 78.3444C167.465 77.6924 166.923 77.1508 166.271 76.7741Z" fill="#605FBE"/>
<path d="M166.271 93.9408L157.842 89.0768L127.646 106.514C126.318 107.28 124.682 107.28 123.354 106.514L93.1585 89.0768L84.7292 93.9408C82.6761 95.1267 81.973 97.7524 83.1589 99.8055C83.5355 100.458 84.0771 100.999 84.7292 101.376L123.354 123.681C124.682 124.446 126.318 124.446 127.646 123.681L166.271 101.376C168.324 100.19 169.027 97.5642 167.841 95.5111C167.465 94.859 166.923 94.3175 166.271 93.9408Z" fill="#007CFF"/>
</g>
</g>
<defs>
<filter id="filter0_f_2_351" x="-86" y="-131" width="423" height="423" filterUnits="userSpaceOnUse" color-interpolation-filters="sRGB">
<feFlood flood-opacity="0" result="BackgroundImageFix"/>
<feBlend mode="normal" in="SourceGraphic" in2="BackgroundImageFix" result="shape"/>
<feGaussianBlur stdDeviation="80" result="effect1_foregroundBlur_2_351"/>
</filter>
<clipPath id="clip0_2_351">
<rect width="251" height="160" rx="6" fill="white"/>
</clipPath>
</defs>
</svg>
