<svg width="11" height="11" viewBox="0 0 11 11" fill="none" xmlns="http://www.w3.org/2000/svg">
<path d="M6.41 5.5L9.71 2.21C9.80324 2.11676 9.8772 2.00607 9.92766 1.88425C9.97812 1.76243 10.0041 1.63186 10.0041 1.5C10.0041 1.36814 9.97812 1.23758 9.92766 1.11575C9.8772 0.993931 9.80324 0.883241 9.71 0.790002C9.61676 0.696764 9.50607 0.622803 9.38425 0.572343C9.26243 0.521883 9.13186 0.495911 9 0.495911C8.86814 0.495911 8.73757 0.521883 8.61575 0.572343C8.49393 0.622803 8.38324 0.696764 8.29 0.790002L4.29 4.79C4.19627 4.88297 4.12188 4.99357 4.07111 5.11543C4.02034 5.23728 3.9942 5.36799 3.9942 5.5C3.9942 5.63201 4.02034 5.76272 4.07111 5.88458C4.12188 6.00644 4.19627 6.11704 4.29 6.21L8.29 10.21C8.38296 10.3037 8.49356 10.3781 8.61542 10.4289C8.73728 10.4797 8.86799 10.5058 9 10.5058C9.13201 10.5058 9.26272 10.4797 9.38458 10.4289C9.50644 10.3781 9.61704 10.3037 9.71 10.21C9.80373 10.117 9.87812 10.0064 9.92889 9.88458C9.97966 9.76272 10.0058 9.63201 10.0058 9.5C10.0058 9.36799 9.97966 9.23728 9.92889 9.11543C9.87812 8.99357 9.80373 8.88297 9.71 8.79L6.41 5.5ZM1 0.500002C0.734784 0.500002 0.48043 0.605359 0.292893 0.792896C0.105357 0.980432 0 1.23479 0 1.5V9.5C0 9.76522 0.105357 10.0196 0.292893 10.2071C0.48043 10.3946 0.734784 10.5 1 10.5C1.26522 10.5 1.51957 10.3946 1.70711 10.2071C1.89464 10.0196 2 9.76522 2 9.5V1.5C2 1.23479 1.89464 0.980432 1.70711 0.792896C1.51957 0.605359 1.26522 0.500002 1 0.500002Z" fill="white" fill-opacity="0.3"/>
</svg>
