<svg width="8" height="14" viewBox="0 0 8 14" fill="none" xmlns="http://www.w3.org/2000/svg">
<path d="M0.460263 7.70996L6.12026 13.36C6.21323 13.4537 6.32383 13.5281 6.44569 13.5789C6.56754 13.6296 6.69825 13.6558 6.83026 13.6558C6.96227 13.6558 7.09298 13.6296 7.21484 13.5789C7.3367 13.5281 7.4473 13.4537 7.54026 13.36C7.72651 13.1726 7.83105 12.9191 7.83105 12.655C7.83105 12.3908 7.72651 12.1373 7.54026 11.95L2.59026 6.94996L7.54026 1.99996C7.72651 1.8126 7.83106 1.55915 7.83106 1.29496C7.83106 1.03078 7.72651 0.777326 7.54026 0.589964C7.44765 0.495476 7.3372 0.420305 7.21533 0.368809C7.09345 0.317312 6.96257 0.290514 6.83026 0.289965C6.69796 0.290514 6.56707 0.317312 6.4452 0.368809C6.32332 0.420305 6.21288 0.495476 6.12026 0.589964L0.460263 6.23996C0.358758 6.3336 0.277749 6.44726 0.222342 6.57376C0.166935 6.70026 0.13833 6.83686 0.13833 6.97496C0.13833 7.11306 0.166935 7.24967 0.222342 7.37617C0.277749 7.50267 0.358758 7.61632 0.460263 7.70996V7.70996Z" fill="white" fill-opacity="0.6"/>
</svg>
