<svg width="82" height="107" viewBox="0 0 82 107" fill="none" xmlns="http://www.w3.org/2000/svg">
<g filter="url(#filter0_f_2_379)">
<rect x="20" y="20" width="42" height="67" fill="#007CFF" fill-opacity="0.1"/>
</g>
<path d="M38.8346 47.666H52.168C53.6407 47.666 54.8346 48.8599 54.8346 50.3327V63.666C54.8346 65.1388 53.6407 66.3327 52.168 66.3327H38.8346C37.3619 66.3327 36.168 65.1388 36.168 63.666V50.3327C36.168 48.8599 37.3619 47.666 38.8346 47.666Z" fill="#605FBE"/>
<path d="M36.1654 50.334C36.1654 48.8612 37.3592 47.6673 38.832 47.6673H46.832V42.334C46.832 40.8612 45.6382 39.6673 44.1654 39.6673H30.832C29.3592 39.6673 28.1654 40.8612 28.1654 42.334V55.6673C28.1654 57.1401 29.3592 58.334 30.832 58.334H36.1654V50.334ZM20.1654 79.6673C17.2198 79.6673 14.832 77.2795 14.832 74.334C14.832 71.3885 17.2198 69.0006 20.1654 69.0006C23.1109 69.0006 25.4987 71.3885 25.4987 74.334C25.4949 77.2779 23.1093 79.6635 20.1654 79.6673ZM20.1654 37.0007C17.2198 37.0007 14.832 34.6128 14.832 31.6673C14.832 28.7218 17.2198 26.334 20.1654 26.334C23.1109 26.334 25.4987 28.7218 25.4987 31.6673C25.4949 34.6113 23.1093 36.9968 20.1654 37.0007ZM62.832 37.0007C59.8865 37.0007 57.4987 34.6128 57.4987 31.6673C57.4987 28.7218 59.8865 26.334 62.832 26.334C65.7775 26.334 68.1654 28.7218 68.1654 31.6673C68.1615 34.6113 65.776 36.9968 62.832 37.0007ZM62.832 79.6673C59.8865 79.6673 57.4987 77.2795 57.4987 74.334C57.4987 71.3885 59.8865 69.0006 62.832 69.0006C65.7775 69.0006 68.1654 71.3885 68.1654 74.334C68.1615 77.2779 65.776 79.6635 62.832 79.6673Z" fill="#007CFF"/>
<path d="M58.2422 34.3333C57.2526 32.6933 57.2526 30.6401 58.2422 29H24.7578C25.7474 30.6401 25.7474 32.6933 24.7578 34.3333H58.2422ZM62.8333 69C63.7725 69.0054 64.6931 69.2616 65.5 69.7422V36.2578C63.8599 37.2474 61.8067 37.2474 60.1667 36.2578V69.7422C60.9735 69.2616 61.8942 69.0054 62.8333 69ZM20.1667 69C21.1058 69.0054 22.0265 69.2616 22.8333 69.7422V36.2578C21.1933 37.2474 19.1401 37.2474 17.5 36.2578V69.7422C18.3069 69.2616 19.2275 69.0054 20.1667 69ZM58.2422 71.6667H24.7578C25.7474 73.3067 25.7474 75.3599 24.7578 77H58.2422C57.2526 75.3599 57.2526 73.3067 58.2422 71.6667Z" fill="#C1C0FF"/>
<defs>
<filter id="filter0_f_2_379" x="0" y="0" width="82" height="107" filterUnits="userSpaceOnUse" color-interpolation-filters="sRGB">
<feFlood flood-opacity="0" result="BackgroundImageFix"/>
<feBlend mode="normal" in="SourceGraphic" in2="BackgroundImageFix" result="shape"/>
<feGaussianBlur stdDeviation="10" result="effect1_foregroundBlur_2_379"/>
</filter>
</defs>
</svg>
