<svg width="251" height="160" viewBox="0 0 251 160" fill="none" xmlns="http://www.w3.org/2000/svg">
<g clip-path="url(#clip0_2_373)">
<rect width="251" height="160" rx="6" fill="white" fill-opacity="0.02"/>
<g opacity="0.2" filter="url(#filter0_f_2_373)">
<path d="M116.357 61.6959H162.108C167.162 61.6959 171.258 65.7925 171.258 70.8461V116.597C171.258 121.65 167.162 125.747 162.108 125.747H116.357C111.304 125.747 107.207 121.65 107.207 116.597V70.8461C107.207 65.7925 111.304 61.6959 116.357 61.6959Z" fill="#605FBE"/>
<path d="M107.198 70.8505C107.198 65.7968 111.295 61.7004 116.349 61.7004H143.799V43.4001C143.799 38.3464 139.703 34.25 134.649 34.25H88.8982C83.8444 34.25 79.748 38.3464 79.748 43.4001V89.1508C79.748 94.2045 83.8444 98.3009 88.8982 98.3009H107.198V70.8505ZM52.2976 171.502C42.1907 171.502 33.9974 163.309 33.9974 153.202C33.9974 143.095 42.1907 134.901 52.2976 134.901C62.4046 134.901 70.5979 143.095 70.5979 153.202C70.5848 163.303 62.3992 171.489 52.2976 171.502ZM52.2976 25.0999C42.1907 25.0999 33.9974 16.9066 33.9974 6.7996C33.9974 -3.30736 42.1907 -11.5007 52.2976 -11.5007C62.4046 -11.5007 70.5979 -3.30736 70.5979 6.7996C70.5848 16.9012 62.3992 25.0868 52.2976 25.0999ZM198.7 25.0999C188.593 25.0999 180.399 16.9066 180.399 6.7996C180.399 -3.30736 188.593 -11.5007 198.7 -11.5007C208.807 -11.5007 217 -3.30736 217 6.7996C216.987 16.9012 208.801 25.0868 198.7 25.0999ZM198.7 171.502C188.593 171.502 180.399 163.309 180.399 153.202C180.399 143.095 188.593 134.901 198.7 134.901C208.807 134.901 217 143.095 217 153.202C216.987 163.303 208.801 171.489 198.7 171.502Z" fill="#007CFF"/>
<path d="M182.951 15.9475C179.555 10.3199 179.555 3.27485 182.951 -2.35275H68.0557C71.4512 3.27485 71.4512 10.3199 68.0557 15.9475H182.951ZM198.704 134.899C201.927 134.918 205.086 135.797 207.854 137.446V22.551C202.227 25.9465 195.182 25.9465 189.554 22.551V137.446C192.323 135.797 195.482 134.918 198.704 134.899ZM52.3021 134.899C55.5246 134.918 58.6836 135.797 61.4522 137.446V22.551C55.8246 25.9465 48.7796 25.9465 43.152 22.551V137.446C45.9206 135.797 49.0796 134.918 52.3021 134.899ZM182.951 144.049H68.0557C71.4512 149.677 71.4512 156.722 68.0557 162.35H182.951C179.555 156.722 179.555 149.677 182.951 144.049Z" fill="#C1C0FF"/>
</g>
</g>
<defs>
<filter id="filter0_f_2_373" x="-63.0026" y="-108.501" width="377.003" height="377.003" filterUnits="userSpaceOnUse" color-interpolation-filters="sRGB">
<feFlood flood-opacity="0" result="BackgroundImageFix"/>
<feBlend mode="normal" in="SourceGraphic" in2="BackgroundImageFix" result="shape"/>
<feGaussianBlur stdDeviation="48.5" result="effect1_foregroundBlur_2_373"/>
</filter>
<clipPath id="clip0_2_373">
<rect width="251" height="160" rx="6" fill="white"/>
</clipPath>
</defs>
</svg>
