<svg width="251" height="160" viewBox="0 0 251 160" fill="none" xmlns="http://www.w3.org/2000/svg">
<g clip-path="url(#clip0_42_10)">
<rect width="251" height="160" rx="6" fill="white" fill-opacity="0.02"/>
<g opacity="0.2" filter="url(#filter0_f_42_10)">
<path d="M116.357 61.6959H162.108C167.162 61.6959 171.258 65.7925 171.258 70.8461V116.597C171.258 121.65 167.162 125.747 162.108 125.747H116.357C111.304 125.747 107.207 121.65 107.207 116.597V70.8461C107.207 65.7925 111.304 61.6959 116.357 61.6959Z" fill="#605FBE"/>
<path d="M107.198 70.8505C107.198 65.7968 111.295 61.7004 116.349 61.7004H143.799V43.4001C143.799 38.3464 139.703 34.25 134.649 34.25H88.8982C83.8444 34.25 79.748 38.3464 79.748 43.4001V89.1508C79.748 94.2045 83.8444 98.3009 88.8982 98.3009H107.198V70.8505ZM52.2976 171.502C42.1907 171.502 33.9974 163.309 33.9974 153.202C33.9974 143.095 42.1907 134.901 52.2976 134.901C62.4046 134.901 70.5979 143.095 70.5979 153.202C70.5848 163.303 62.3992 171.489 52.2976 171.502ZM52.2976 25.0999C42.1907 25.0999 33.9974 16.9066 33.9974 6.7996C33.9974 -3.30735 42.1907 -11.5007 52.2976 -11.5007C62.4046 -11.5007 70.5979 -3.30735 70.5979 6.7996C70.5848 16.9012 62.3992 25.0868 52.2976 25.0999ZM198.7 25.0999C188.593 25.0999 180.399 16.9066 180.399 6.7996C180.399 -3.30735 188.593 -11.5007 198.7 -11.5007C208.807 -11.5007 217 -3.30735 217 6.7996C216.987 16.9012 208.801 25.0868 198.7 25.0999ZM198.7 171.502C188.593 171.502 180.399 163.309 180.399 153.202C180.399 143.095 188.593 134.901 198.7 134.901C208.807 134.901 217 143.095 217 153.202C216.987 163.303 208.801 171.489 198.7 171.502Z" fill="#007CFF"/>
<path d="M182.951 15.9475C179.555 10.3199 179.555 3.27484 182.951 -2.35276H68.0557C71.4512 3.27484 71.4512 10.3199 68.0557 15.9475H182.951ZM198.704 134.899C201.927 134.918 205.086 135.797 207.854 137.446V22.551C202.227 25.9465 195.182 25.9465 189.554 22.551V137.446C192.323 135.797 195.482 134.918 198.704 134.899ZM52.3021 134.899C55.5246 134.918 58.6836 135.797 61.4522 137.446V22.551C55.8246 25.9465 48.7796 25.9465 43.152 22.551V137.446C45.9206 135.797 49.0796 134.918 52.3021 134.899ZM182.951 144.049H68.0557C71.4512 149.677 71.4512 156.722 68.0557 162.35H182.951C179.555 156.722 179.555 149.677 182.951 144.049Z" fill="#C1C0FF"/>
</g>
<g filter="url(#filter1_f_42_10)">
<rect x="104" y="47" width="42" height="67" fill="#007CFF" fill-opacity="0.1"/>
</g>
<path d="M122.835 74.666H136.168C137.641 74.666 138.835 75.8599 138.835 77.3327V90.666C138.835 92.1388 137.641 93.3327 136.168 93.3327H122.835C121.362 93.3327 120.168 92.1388 120.168 90.666V77.3327C120.168 75.8599 121.362 74.666 122.835 74.666Z" fill="#605FBE"/>
<path d="M120.165 77.334C120.165 75.8612 121.359 74.6673 122.832 74.6673H130.832V69.334C130.832 67.8612 129.638 66.6673 128.165 66.6673H114.832C113.359 66.6673 112.165 67.8612 112.165 69.334V82.6673C112.165 84.1401 113.359 85.334 114.832 85.334H120.165V77.334ZM104.165 106.667C101.22 106.667 98.832 104.28 98.832 101.334C98.832 98.3885 101.22 96.0006 104.165 96.0006C107.111 96.0006 109.499 98.3885 109.499 101.334C109.495 104.278 107.109 106.664 104.165 106.667ZM104.165 64.0007C101.22 64.0007 98.832 61.6128 98.832 58.6673C98.832 55.7218 101.22 53.334 104.165 53.334C107.111 53.334 109.499 55.7218 109.499 58.6673C109.495 61.6113 107.109 63.9968 104.165 64.0007ZM146.832 64.0007C143.887 64.0007 141.499 61.6128 141.499 58.6673C141.499 55.7218 143.887 53.334 146.832 53.334C149.778 53.334 152.165 55.7218 152.165 58.6673C152.162 61.6113 149.776 63.9968 146.832 64.0007ZM146.832 106.667C143.887 106.667 141.499 104.28 141.499 101.334C141.499 98.3885 143.887 96.0006 146.832 96.0006C149.778 96.0006 152.165 98.3885 152.165 101.334C152.162 104.278 149.776 106.664 146.832 106.667Z" fill="#007CFF"/>
<path d="M142.242 61.3333C141.253 59.6933 141.253 57.6401 142.242 56H108.758C109.747 57.6401 109.747 59.6933 108.758 61.3333H142.242ZM146.833 96C147.772 96.0054 148.693 96.2616 149.5 96.7422V63.2578C147.86 64.2474 145.807 64.2474 144.167 63.2578V96.7422C144.974 96.2616 145.894 96.0054 146.833 96ZM104.167 96C105.106 96.0054 106.026 96.2616 106.833 96.7422V63.2578C105.193 64.2474 103.14 64.2474 101.5 63.2578V96.7422C102.307 96.2616 103.228 96.0054 104.167 96ZM142.242 98.6667H108.758C109.747 100.307 109.747 102.36 108.758 104H142.242C141.253 102.36 141.253 100.307 142.242 98.6667Z" fill="#C1C0FF"/>
</g>
<defs>
<filter id="filter0_f_42_10" x="-63.0026" y="-108.501" width="377.003" height="377.003" filterUnits="userSpaceOnUse" color-interpolation-filters="sRGB">
<feFlood flood-opacity="0" result="BackgroundImageFix"/>
<feBlend mode="normal" in="SourceGraphic" in2="BackgroundImageFix" result="shape"/>
<feGaussianBlur stdDeviation="48.5" result="effect1_foregroundBlur_42_10"/>
</filter>
<filter id="filter1_f_42_10" x="84" y="27" width="82" height="107" filterUnits="userSpaceOnUse" color-interpolation-filters="sRGB">
<feFlood flood-opacity="0" result="BackgroundImageFix"/>
<feBlend mode="normal" in="SourceGraphic" in2="BackgroundImageFix" result="shape"/>
<feGaussianBlur stdDeviation="10" result="effect1_foregroundBlur_42_10"/>
</filter>
<clipPath id="clip0_42_10">
<rect width="251" height="160" rx="6" fill="white"/>
</clipPath>
</defs>
</svg>
