<svg width="24" height="18" viewBox="0 0 24 18" fill="none" xmlns="http://www.w3.org/2000/svg">
<path d="M17.7123 17.4975C17.7123 17.4975 16.9726 16.6273 16.3561 15.8583C17.8455 15.513 19.1629 14.66 20.0753 13.4504C19.336 13.935 18.5432 14.3355 17.7123 14.6441C16.7564 15.046 15.7567 15.338 14.7329 15.5143C12.973 15.8334 11.1682 15.8266 9.41095 15.4941C8.3793 15.2953 7.36825 15.004 6.39041 14.6241C5.87495 14.4288 5.37372 14.199 4.89026 13.936C4.82874 13.8955 4.76707 13.8753 4.70542 13.8348C4.67451 13.8197 4.64666 13.7991 4.62323 13.7742C4.25339 13.5718 4.04789 13.4302 4.04789 13.4302C4.92725 14.6145 6.19917 15.459 7.64377 15.8178C7.02742 16.5869 6.26709 17.4973 6.26709 17.4973C5.04651 17.5297 3.83657 17.2661 2.74374 16.7298C1.6509 16.1935 0.708686 15.4009 0 14.4217C0.0667117 10.3195 1.07844 6.28573 2.95887 2.62467C4.61369 1.34478 6.63119 0.602389 8.73281 0.5L8.93829 0.742901C6.96102 1.22466 5.11588 2.1297 3.53422 3.39362C3.53422 3.39362 3.98624 3.15086 4.74643 2.80684C6.22348 2.14288 7.79769 1.71265 9.41095 1.53204C9.52598 1.50853 9.64287 1.49497 9.76029 1.49151C11.1373 1.31487 12.5308 1.30131 13.911 1.45112C16.0815 1.69524 18.1826 2.35513 20.0958 3.39362C18.5943 2.19001 16.8504 1.3141 14.9794 0.823835L15.2671 0.500138C17.3687 0.602446 19.3862 1.34485 21.041 2.62481C22.9215 6.28579 23.9333 10.3195 24 14.4217C23.2856 15.3999 22.3393 16.1914 21.2435 16.7275C20.1476 17.2635 18.9354 17.5278 17.7123 17.4973V17.4975ZM8.15747 8.04769C7.59965 8.0477 7.06468 8.26594 6.67025 8.65438C6.27582 9.04282 6.05423 9.56965 6.05424 10.119C6.05425 10.6683 6.27585 11.1951 6.6703 11.5836C7.06474 11.972 7.59971 12.1902 8.15754 12.1902C8.71536 12.1902 9.25033 11.972 9.64478 11.5836C10.0392 11.1951 10.2608 10.6683 10.2608 10.119C10.2608 9.56965 10.0393 9.04282 9.64483 8.65438C9.2504 8.26594 8.71543 8.0477 8.15761 8.04769H8.15747ZM15.6575 8.04769C15.1982 8.00936 14.7379 8.1085 14.3367 8.33212C13.9356 8.55573 13.6123 8.89341 13.4093 9.30095C13.2063 9.70848 13.1329 10.1669 13.1989 10.6162C13.2648 11.0654 13.467 11.4846 13.7789 11.8189C14.0907 12.1531 14.4978 12.3869 14.9469 12.4895C15.3959 12.5921 15.8659 12.5588 16.2954 12.394C16.7249 12.2292 17.0939 11.9405 17.354 11.5657C17.6141 11.191 17.7533 10.7476 17.7533 10.2937C17.7655 10.0107 17.7211 9.72803 17.6224 9.46196C17.5237 9.19588 17.3727 8.95156 17.1781 8.74298C16.9834 8.53439 16.749 8.36562 16.4881 8.24632C16.2272 8.12702 15.945 8.05952 15.6575 8.04769Z" fill="white" fill-opacity="0.6"/>
</svg>
