<svg width="251" height="160" viewBox="0 0 251 160" fill="none" xmlns="http://www.w3.org/2000/svg">
<g clip-path="url(#clip0_2_236)">
<rect width="251" height="160" rx="6" fill="white" fill-opacity="0.02"/>
<g opacity="0.8" filter="url(#filter0_f_2_236)">
<path d="M125.594 79.5075C125.594 67.8176 135.201 58.341 146.891 58.341V58.341C158.581 58.341 168.188 67.8176 168.188 79.5075V79.5075C168.188 91.1974 158.581 100.674 146.891 100.674V100.674C135.201 100.674 125.594 91.1974 125.594 79.5075V79.5075Z" fill="#1ABCFE"/>
<path d="M83 121.833C83 110.143 92.4765 100.666 104.166 100.666H125.594V121.702C125.594 133.464 115.994 142.999 104.232 142.999V142.999C92.5417 142.999 83 133.523 83 121.833V121.833Z" fill="#0ACF83"/>
<path d="M125.594 16V58.3329H147.022C158.712 58.3329 168.188 48.8564 168.188 37.1665V37.1665C168.188 25.4766 158.712 16 147.022 16H125.594Z" fill="#FF7262"/>
<path d="M83 37.1745C83 48.8645 92.4765 58.341 104.166 58.341L125.594 58.341V16.0081L104.166 16.0081C92.4765 16.0081 83 25.4846 83 37.1745V37.1745Z" fill="#F24E1E"/>
<path d="M83 79.5C83 91.1899 92.4765 100.666 104.166 100.666H125.594V58.3335L104.166 58.3335C92.4765 58.3335 83 67.81 83 79.5V79.5Z" fill="#A259FF"/>
</g>
</g>
<defs>
<filter id="filter0_f_2_236" x="-67" y="-134" width="385.188" height="426.999" filterUnits="userSpaceOnUse" color-interpolation-filters="sRGB">
<feFlood flood-opacity="0" result="BackgroundImageFix"/>
<feBlend mode="normal" in="SourceGraphic" in2="BackgroundImageFix" result="shape"/>
<feGaussianBlur stdDeviation="75" result="effect1_foregroundBlur_2_236"/>
</filter>
<clipPath id="clip0_2_236">
<rect width="251" height="160" rx="6" fill="white"/>
</clipPath>
</defs>
</svg>
