<svg width="41" height="60" viewBox="0 0 41 60" fill="none" xmlns="http://www.w3.org/2000/svg">
<path d="M20.1245 30.0031C20.1245 24.4803 24.6633 20.0033 30.1861 20.0033V20.0033C35.7089 20.0033 40.2477 24.4803 40.2477 30.0031V30.0031C40.2477 35.5259 35.7089 40.003 30.1861 40.003V40.003C24.6633 40.003 20.1245 35.5259 20.1245 30.0031V30.0031Z" fill="#1ABCFE"/>
<path d="M0.000808716 49.9999C0.000808716 44.4771 4.4779 40 10.0007 40H20.124V49.9381C20.124 55.495 15.5883 59.9997 10.0314 59.9997V59.9997C4.50866 59.9997 0.000808716 55.5226 0.000808716 49.9999V49.9999Z" fill="#0ACF83"/>
<path d="M20.1245 0V19.9997H30.2478C35.7706 19.9997 40.2477 15.5226 40.2477 9.99986V9.99986C40.2477 4.47709 35.7706 0 30.2478 0L20.1245 0Z" fill="#FF7262"/>
<path d="M0.000808716 10.0034C0.000808716 15.5262 4.4779 20.0033 10.0007 20.0033L20.124 20.0033L20.124 0.00353682L10.0007 0.00353682C4.47789 0.00353682 0.000808716 4.48063 0.000808716 10.0034V10.0034Z" fill="#F24E1E"/>
<path d="M0.000808716 30.0001C0.000808716 35.5229 4.4779 40 10.0007 40H20.124L20.124 20.0003L10.0007 20.0003C4.47789 20.0003 0.000808716 24.4774 0.000808716 30.0001V30.0001Z" fill="#A259FF"/>
</svg>
