<svg width="251" height="160" viewBox="0 0 251 160" fill="none" xmlns="http://www.w3.org/2000/svg">
<mask id="mask0_1_11" style="mask-type:luminance" maskUnits="userSpaceOnUse" x="0" y="0" width="251" height="160">
<path d="M251 0H0V160H251V0Z" fill="white"/>
</mask>
<g mask="url(#mask0_1_11)">
<g opacity="0.5" filter="url(#filter0_f_1_11)">
<path d="M44.448 0H206.552C231.13 0 251 12.9914 251 29.0598V130.94C251 147.009 231.13 160 206.552 160H44.448C19.8708 160 0 147.009 0 130.94V29.0598C0 12.9914 19.8708 0 44.448 0Z" fill="#330000"/>
<path d="M121.633 95.9999H82.7276L74.7793 112.068C74.5701 112.684 73.7336 113.094 72.7923 113.026H53.1306C51.9801 113.026 51.6664 112.615 51.9801 111.795L85.6554 48.4102C85.9692 47.7264 86.2829 46.9742 86.7023 46.1537C87.1201 44.7179 87.3298 43.2135 87.3298 41.7093C87.2242 41.3674 87.6436 41.0256 88.1654 40.9572C88.2711 40.9572 88.3751 40.9572 88.4792 40.9572H115.254C116.089 40.9572 116.509 41.1623 116.613 41.5042L154.786 111.932C155.1 112.684 154.786 113.026 153.739 113.026H131.882C131.149 113.094 130.418 112.752 130.208 112.273L121.633 95.9999ZM88.7929 82.1196H115.358C114.73 80.6836 113.893 78.9742 112.952 77.1965C112.01 75.3504 111.069 73.3674 110.128 71.3161C109.083 69.1965 108.141 67.1452 107.096 65.0256C106.049 62.9058 105.108 60.923 104.272 58.9401C103.435 57.0256 102.704 55.2478 101.97 53.6067H101.762C100.821 56.5469 99.6701 59.4871 98.2054 62.4273C96.6367 65.7093 95.0679 69.1281 93.3951 72.5469C91.9304 76.0341 90.3617 79.2478 88.7929 82.1196Z" fill="#FF9A00"/>
<path d="M177.586 52.6495C174.135 52.7179 170.787 51.8289 168.277 50.2563C165.871 48.5469 164.616 46.2905 164.722 43.9658C164.616 41.641 165.977 39.4529 168.487 37.8803C170.997 36.3076 174.343 35.4871 177.794 35.4871C181.873 35.4871 185.01 36.3076 187.312 37.8803C189.612 39.5212 190.867 41.7093 190.763 43.9658C190.867 46.2905 189.612 48.5469 187.102 50.2563C184.696 51.8973 181.141 52.7862 177.586 52.6495ZM165.871 112V59.3504C165.871 58.6666 166.291 58.3931 167.232 58.3931H187.94C188.881 58.3931 189.299 58.735 189.299 59.3504V112C189.299 112.752 188.881 113.094 187.94 113.094H167.44C166.395 113.094 165.871 112.684 165.871 112Z" fill="#FF9A00"/>
</g>
</g>
<defs>
<filter id="filter0_f_1_11" x="-150" y="-150" width="551" height="460" filterUnits="userSpaceOnUse" color-interpolation-filters="sRGB">
<feFlood flood-opacity="0" result="BackgroundImageFix"/>
<feBlend mode="normal" in="SourceGraphic" in2="BackgroundImageFix" result="shape"/>
<feGaussianBlur stdDeviation="75" result="effect1_foregroundBlur_1_11"/>
</filter>
</defs>
</svg>
