<svg width="251" height="160" viewBox="0 0 251 160" fill="none" xmlns="http://www.w3.org/2000/svg">
<g clip-path="url(#clip0_2_280)">
<rect width="251" height="160" rx="6" fill="white" fill-opacity="0.02"/>
<g opacity="0.5" clip-path="url(#clip1_2_280)" filter="url(#filter0_f_2_280)">
<path d="M75.9167 8H174.083C188.967 8 201 19.6111 201 33.9722V125.028C201 139.389 188.967 151 174.083 151H75.9167C61.0333 151 49 139.389 49 125.028V33.9722C49 19.6111 61.0333 8 75.9167 8Z" fill="#330000"/>
<path d="M122.658 93.7999H99.098L94.2847 108.161C94.158 108.711 93.6513 109.078 93.0813 109.017H81.1747C80.478 109.017 80.288 108.65 80.478 107.917L100.871 51.2666C101.061 50.6555 101.251 49.9832 101.505 49.2499C101.758 47.9666 101.885 46.6221 101.885 45.2777C101.821 44.9721 102.075 44.6666 102.391 44.6055C102.455 44.6055 102.518 44.6055 102.581 44.6055H118.795C119.301 44.6055 119.555 44.7888 119.618 45.0944L142.735 108.039C142.925 108.711 142.735 109.017 142.101 109.017H128.865C128.421 109.078 127.978 108.772 127.851 108.344L122.658 93.7999ZM102.771 81.3944H118.858C118.478 80.111 117.971 78.5832 117.401 76.9944C116.831 75.3444 116.261 73.5721 115.691 71.7388C115.058 69.8444 114.488 68.011 113.855 66.1166C113.221 64.2221 112.651 62.4499 112.145 60.6777C111.638 58.9666 111.195 57.3777 110.751 55.911H110.625C110.055 58.5388 109.358 61.1666 108.471 63.7944C107.521 66.7277 106.571 69.7832 105.558 72.8388C104.671 75.9555 103.721 78.8277 102.771 81.3944Z" fill="#FF9A00"/>
<path d="M156.542 55.0555C154.452 55.1166 152.425 54.3221 150.905 52.9166C149.448 51.3888 148.688 49.3721 148.752 47.2944C148.688 45.2166 149.512 43.261 151.032 41.8555C152.552 40.4499 154.578 39.7166 156.668 39.7166C159.138 39.7166 161.038 40.4499 162.432 41.8555C163.825 43.3221 164.585 45.2777 164.522 47.2944C164.585 49.3721 163.825 51.3888 162.305 52.9166C160.848 54.3832 158.695 55.1777 156.542 55.0555ZM149.448 108.1V61.0444C149.448 60.4333 149.702 60.1888 150.272 60.1888H162.812C163.382 60.1888 163.635 60.4944 163.635 61.0444V108.1C163.635 108.772 163.382 109.078 162.812 109.078H150.398C149.765 109.078 149.448 108.711 149.448 108.1Z" fill="#FF9A00"/>
</g>
</g>
<defs>
<filter id="filter0_f_2_280" x="-101" y="-142" width="452" height="443" filterUnits="userSpaceOnUse" color-interpolation-filters="sRGB">
<feFlood flood-opacity="0" result="BackgroundImageFix"/>
<feBlend mode="normal" in="SourceGraphic" in2="BackgroundImageFix" result="shape"/>
<feGaussianBlur stdDeviation="75" result="effect1_foregroundBlur_2_280"/>
</filter>
<clipPath id="clip0_2_280">
<rect width="251" height="160" rx="6" fill="white"/>
</clipPath>
<clipPath id="clip1_2_280">
<rect width="152" height="143" fill="white" transform="translate(49 8)"/>
</clipPath>
</defs>
</svg>
