<svg width="72" height="68" viewBox="0 0 72 68" fill="none" xmlns="http://www.w3.org/2000/svg">
<g clip-path="url(#clip0_2_291)">
<path d="M12.75 0H59.25C66.3 0 72 5.52137 72 12.3504V55.6496C72 62.4786 66.3 68 59.25 68H12.75C5.7 68 0 62.4786 0 55.6496V12.3504C0 5.52137 5.7 0 12.75 0Z" fill="#330000"/>
<path d="M12.75 1H59.25C65.778 1 71 6.10343 71 12.3504V55.6496C71 61.8966 65.778 67 59.25 67H12.75C6.22203 67 1 61.8966 1 55.6496V12.3504C1 6.10343 6.22203 1 12.75 1Z" stroke="white" stroke-opacity="0.05" stroke-width="2"/>
<path d="M34.8906 40.8H23.7306L21.4506 47.629C21.3906 47.8905 21.1506 48.0649 20.8806 48.0359H15.2406C14.9106 48.0359 14.8206 47.8615 14.9106 47.5128L24.5706 20.5743C24.6606 20.2837 24.7506 19.9641 24.8706 19.6153C24.9906 19.0051 25.0506 18.3658 25.0506 17.7264C25.0206 17.5812 25.1406 17.4359 25.2906 17.4068C25.3206 17.4068 25.3506 17.4068 25.3806 17.4068H33.0606C33.3006 17.4068 33.4206 17.494 33.4506 17.6393L44.4006 47.5709C44.4906 47.8905 44.4006 48.0359 44.1006 48.0359H37.8306C37.6206 48.0649 37.4106 47.9196 37.3506 47.7162L34.8906 40.8ZM25.4706 34.9008H33.0906C32.9106 34.2906 32.6706 33.5641 32.4006 32.8085C32.1306 32.0239 31.8606 31.1812 31.5906 30.3094C31.2906 29.4085 31.0206 28.5367 30.7206 27.6359C30.4206 26.735 30.1506 25.8923 29.9106 25.0495C29.6706 24.2358 29.4606 23.4803 29.2506 22.7829H29.1906C28.9206 24.0324 28.5906 25.282 28.1706 26.5316C27.7206 27.9264 27.2706 29.3794 26.7906 30.8324C26.3706 32.3145 25.9206 33.6803 25.4706 34.9008Z" fill="#FF9A00"/>
<path d="M50.9408 22.376C49.9508 22.4051 48.9908 22.0273 48.2708 21.3589C47.5808 20.6324 47.2208 19.6735 47.2508 18.6854C47.2208 17.6974 47.6108 16.7675 48.3308 16.0991C49.0508 15.4307 50.0108 15.082 51.0008 15.082C52.1708 15.082 53.0708 15.4307 53.7308 16.0991C54.3908 16.7965 54.7508 17.7265 54.7208 18.6854C54.7508 19.6735 54.3908 20.6324 53.6708 21.3589C52.9808 22.0564 51.9608 22.4341 50.9408 22.376ZM47.5808 47.6V25.2239C47.5808 24.9333 47.7008 24.8171 47.9708 24.8171H53.9108C54.1808 24.8171 54.3008 24.9624 54.3008 25.2239V47.6C54.3008 47.9196 54.1808 48.0649 53.9108 48.0649H48.0308C47.7308 48.0649 47.5808 47.8906 47.5808 47.6Z" fill="#FF9A00"/>
</g>
<defs>
<clipPath id="clip0_2_291">
<rect width="72" height="68" fill="white"/>
</clipPath>
</defs>
</svg>
