<svg width="72" height="48" viewBox="0 0 72 48" fill="none" xmlns="http://www.w3.org/2000/svg">
<rect width="72" height="48" rx="8" fill="#0E1117"/>
<g clip-path="url(#clip0_0_10)">
<path d="M27.8368 34.3841C27.4885 34.3841 27.1627 34.2304 26.9432 33.9621C26.7239 33.6943 26.6407 33.3477 26.7148 33.0115C26.9459 31.9607 27.3 30.5425 27.7073 29.5705C27.4422 29.6537 27.1688 29.6696 26.9044 29.6696C26.8583 29.6696 26.8089 29.6691 26.7538 29.668C26.5606 29.668 26.374 29.6648 26.1993 29.6586C25.9906 29.6511 25.7907 29.6036 25.6085 29.5222C25.5835 29.6856 25.5047 29.8378 25.3814 29.9548C25.1213 30.2004 24.7119 30.5348 24.2258 30.7471C23.5235 31.1008 22.8839 31.2337 22.7641 31.2565C22.1514 31.3957 21.4396 31.4663 20.6483 31.4663C19.8569 31.4663 19.312 31.398 19.2884 31.3952C18.9652 31.3556 18.7268 31.0786 18.7405 30.7581C18.7478 30.5835 18.7616 30.4152 18.7778 30.2625C17.5459 30.1354 16.1127 29.6438 16.0435 29.6199C15.8289 29.5457 15.672 29.3626 15.6339 29.1416C15.5957 28.9207 15.6824 28.6968 15.8601 28.5569C16.6709 27.9183 17.2309 27.2212 17.5457 26.772C17.2254 26.5329 17 26.3099 16.9859 26.2959C16.8599 26.1703 16.7945 25.9975 16.8064 25.8213C16.8183 25.645 16.9065 25.4823 17.0483 25.3744L18.6357 24.1674C20.153 22.9787 21.4698 22.7293 22.3075 22.7293C22.7761 22.7293 23.1182 22.808 23.2817 22.8553C23.4381 22.9 23.574 22.9972 23.666 23.1279C23.8024 22.9373 23.9788 22.7727 24.1833 22.6465C24.573 22.406 24.7152 22.3029 24.866 22.1938C24.9484 22.134 25.0335 22.0725 25.1552 21.9904C24.7246 21.6417 24.3473 21.3303 24.0112 21.0527C23.4683 20.6045 22.9995 20.2174 22.463 19.8006C22.1256 19.5394 21.9642 19.2439 21.9842 18.9226C21.9947 18.7534 22.0718 18.4339 22.4703 18.1965C23.0161 17.8714 23.4511 17.655 23.9346 17.4314C24.6924 17.048 25.7606 16.5297 26.5673 16.2261C26.7333 16.1639 26.9068 16.1324 27.0832 16.1324C27.5575 16.1324 28.0062 16.3666 28.2721 16.7485C28.332 16.7335 28.3941 16.7258 28.4569 16.7258C28.5559 16.7258 28.655 16.7453 28.7475 16.7824C28.7697 16.7907 28.7916 16.8004 28.813 16.8114L30.3177 17.5804C30.4386 17.6421 30.538 17.7317 30.6093 17.8395C30.8463 17.845 31.0893 17.9113 31.3321 18.0365C31.8303 18.2936 32.2243 18.5343 32.5507 18.782C32.6558 18.4128 32.8776 18.0481 33.3428 17.7781C33.7323 17.5519 35.0725 16.8132 35.9564 16.8132C36.0795 16.8132 36.1954 16.8269 36.3009 16.854C36.3651 16.8705 36.4273 16.8892 36.4879 16.9103C36.57 16.5824 36.7885 16.311 37.0882 16.1653C37.8165 15.8101 38.9131 15.3962 39.8166 15.1355C39.9331 15.1019 40.0527 15.0848 40.1721 15.0848C40.4408 15.0848 40.6942 15.171 40.9004 15.3259C40.9917 15.1436 41.1229 14.9686 41.3089 14.8131C41.7042 14.4824 42.2329 14.3149 43.07 14.1218C43.3215 14.0637 43.5607 14.0343 43.7806 14.0343C44.2061 14.0343 44.5308 14.1439 44.7732 14.2869C44.7932 14.2579 44.8142 14.2295 44.8361 14.202C45.0973 13.8734 45.4702 13.674 45.8864 13.6403C46.0931 13.6237 46.3031 13.6218 46.5061 13.6201C46.584 13.6195 46.6576 13.6189 46.7292 13.6175C46.7389 13.6173 46.7478 13.6172 46.7569 13.6172C47.0491 13.6172 47.3323 13.7078 47.5729 13.8664C47.7628 13.771 48.0062 13.7244 48.3137 13.7244C48.504 13.7244 48.7226 13.7425 48.9631 13.7782C49.2771 13.8249 49.5578 13.9314 49.8006 14.0953C49.9146 14.038 50.0426 14.0063 50.1757 14.0063C50.2088 14.0063 50.2423 14.0083 50.2753 14.0121C50.2877 14.0137 50.2894 14.0135 50.3 14.0155C50.3013 14.0157 50.3083 14.0164 50.3102 14.0167C50.3438 14.0209 50.7073 14.0832 51.1056 14.1756C51.8973 14.3591 52.175 14.5072 52.3284 14.6157C52.4783 14.7217 52.5834 14.8555 52.657 14.998C52.8235 14.9171 53.0137 14.8746 53.2176 14.8746C53.3554 14.8746 53.5001 14.894 53.6475 14.9322C54.5185 15.1578 55.1475 15.4595 55.5637 15.6591C55.6587 15.7047 55.7408 15.744 55.812 15.7759C55.8162 15.7777 55.8202 15.7797 55.8243 15.7816C56.063 15.8922 56.246 16.0967 56.3273 16.3443C56.4098 16.5955 56.3811 16.8708 56.2485 17.1001C56.1127 17.3351 55.9483 17.5992 55.7316 17.931C55.643 18.0663 55.5226 18.1734 55.3832 18.2452C55.3587 18.4247 55.2922 18.5976 55.1871 18.7506C55.0788 18.9081 54.9618 19.0722 54.8293 19.2522C54.6937 19.4362 54.5024 19.561 54.286 19.6114C54.2558 19.8832 54.145 20.1434 53.9616 20.3615C53.7172 20.6518 53.4432 20.9598 53.2561 21.1671C53.1704 21.2625 53.0656 21.3377 52.9497 21.3891C52.9109 21.5253 52.8405 21.6537 52.7403 21.7617C52.3814 22.1476 51.8976 22.6474 51.6274 22.8397C51.6267 22.8402 51.6261 22.8407 51.6253 22.8411C51.5071 22.9246 51.3719 22.9741 51.2312 22.9861C51.1088 23.217 50.9405 23.4231 50.7336 23.59C50.4633 23.8079 49.9012 24.2395 49.1721 24.6818C48.9983 24.7873 48.8006 24.8432 48.6006 24.8432C48.4571 24.8432 48.3153 24.814 48.1834 24.7596C48.0212 25.138 47.7162 25.4445 47.3197 25.6035C46.9017 25.7709 46.3263 25.9835 45.6091 26.2355C45.5138 26.2689 45.4153 26.286 45.3164 26.286C45.1184 26.286 44.932 26.2193 44.7806 26.0962C44.3905 26.4866 43.8959 26.7811 43.3699 26.933C42.7409 27.115 42.0703 27.2976 41.6185 27.4187C41.4854 27.4546 41.3482 27.4728 41.2112 27.4728C40.8544 27.4728 40.5112 27.3508 40.2295 27.1264C40.0663 27.3559 39.8577 27.5517 39.6043 27.7124C39.153 27.9987 38.6647 28.1029 38.3416 28.1718C38.3007 28.1804 38.2622 28.1887 38.2267 28.1967C38.1853 28.2061 38.1351 28.2185 38.0817 28.2316C37.7974 28.3014 37.4077 28.3971 36.9918 28.3971C36.873 28.3971 36.7588 28.389 36.6494 28.3729C36.5467 28.4889 36.4068 28.5723 36.2457 28.6068C36.0236 28.6544 35.5283 28.7467 35.3848 28.7686C35.3412 28.7752 35.2974 28.7786 35.2544 28.7786C35.2517 28.7786 35.2491 28.7786 35.2464 28.7786C34.7542 30.0549 34.1261 31.3992 33.3305 32.6747C33.0075 33.1921 32.5 33.5605 31.9018 33.7123C31.0498 33.9283 29.6719 34.2194 27.9458 34.3797C27.9096 34.3831 27.8729 34.3848 27.8368 34.3848V34.3841ZM22.8412 28.7592C22.961 28.774 23.0733 28.7809 23.1872 28.7809C23.3597 28.7809 23.549 28.7646 23.7813 28.7297C23.956 28.6894 24.1499 28.6263 24.358 28.5419C24.3584 28.5418 24.3591 28.5414 24.3595 28.5413C24.4523 28.504 24.5502 28.485 24.6503 28.485C24.6706 28.485 24.6908 28.4858 24.711 28.4874C24.0822 27.091 23.722 25.7908 23.5585 25.1155C23.5574 25.1109 23.5563 25.1064 23.5554 25.1018C23.4927 24.8531 23.4065 24.4619 23.3826 24.3434C23.3059 24.3941 23.2199 24.4317 23.1273 24.4535C22.4331 24.6178 21.9318 24.9867 21.6234 25.2822C21.6287 25.2869 21.6338 25.2916 21.639 25.2964C21.9628 25.5878 22.0432 26.0579 21.8339 26.439C21.6255 26.8196 21.3559 27.2141 21.1285 27.5254C21.4627 27.6468 21.749 27.6902 21.9525 27.7032C22.2323 27.7214 22.4886 27.8582 22.6566 28.0786C22.806 28.2746 22.8714 28.5185 22.8414 28.7592H22.8412ZM31.4303 28.3436C31.4417 28.4328 31.4499 28.5217 31.4525 28.6091C31.4572 28.6074 31.4619 28.6055 31.4668 28.6039C31.5453 28.5743 31.6637 28.4883 31.8104 28.3242C31.6717 28.3362 31.5451 28.3433 31.4303 28.3434V28.3436ZM27.7062 23.8275C27.75 23.8353 27.7936 23.8446 27.8374 23.8549C27.8922 23.8678 27.9458 23.884 27.9981 23.903C27.9996 23.829 28.0018 23.758 28.0043 23.6902C28.005 23.676 28.0059 23.6617 28.0075 23.6476C28.0078 23.6389 28.0082 23.6302 28.0086 23.6214C27.9995 23.6275 27.9904 23.6336 27.9815 23.6396C27.8853 23.704 27.7941 23.7651 27.7062 23.8275ZM36.7452 23.3955C36.7417 23.4236 36.7381 23.4521 36.7341 23.4809C36.7531 23.48 36.7719 23.4792 36.7907 23.4784C36.7754 23.4512 36.7602 23.4236 36.745 23.3955H36.7452ZM42.2044 23.1362C42.2082 23.1558 42.2122 23.1706 42.2158 23.1817C42.2265 23.1815 42.2361 23.1804 42.2427 23.1795C42.2435 23.1792 42.2438 23.1792 42.244 23.1792C42.2441 23.1792 42.244 23.1792 42.2444 23.1792C42.2444 23.1792 42.2462 23.179 42.2468 23.1789C42.2482 23.1786 42.2505 23.1781 42.2541 23.1772C42.3126 23.163 42.4012 23.1416 42.4587 22.9194C42.5094 22.7243 42.513 22.4531 42.4694 22.1345C42.383 22.0819 42.3023 22.0258 42.2272 21.9673C42.2243 22.0357 42.2213 22.1016 42.2185 22.1648C42.2 22.5769 42.1853 22.9049 42.2044 23.1361V23.1362ZM48.0046 21.0628C48.0167 21.1273 48.0287 21.193 48.0407 21.26C48.0548 21.1934 48.0687 21.127 48.0824 21.0609C48.0567 21.0618 48.0307 21.0624 48.0046 21.0629V21.0628Z" fill="white"/>
<path d="M46.7573 14.2327C47.1038 14.2327 47.4279 14.4585 47.5659 14.7841C47.5677 14.7879 47.5698 14.7921 47.5712 14.7964C47.5712 14.7964 47.6337 14.5475 47.8347 14.4272C47.9223 14.3743 48.0784 14.3401 48.3142 14.3401C48.4657 14.3401 48.6503 14.3543 48.8705 14.387C49.3987 14.4656 49.758 14.7751 49.9356 15.2319L49.9351 15.2323V15.2333C50.114 15.6929 50.3329 16.3711 50.5023 17.2619C50.7938 18.7959 50.8977 20.8781 50.8328 22.1372C50.8131 22.5196 50.6325 22.8745 50.3382 23.112C50.0014 23.3835 49.4674 23.7783 48.8449 24.1559C48.7654 24.2042 48.6822 24.2259 48.6015 24.2259C48.3129 24.2259 48.0586 23.9487 48.1368 23.6206C48.3908 22.5538 48.7958 20.9209 48.9359 19.8002C49.1203 18.3225 49.067 17.8713 48.8834 17.8713C48.8544 17.8713 48.8222 17.8826 48.7872 17.9027C48.551 18.0393 48.8613 18.7942 48.7121 20.0622C48.6919 20.2332 48.5679 20.3725 48.4022 20.4057C48.2908 20.4283 48.1441 20.4462 47.9594 20.4462C47.9048 20.4462 47.8468 20.4446 47.7855 20.4411C47.581 20.4292 47.4174 20.261 47.4058 20.052C47.3814 19.6247 47.4126 18.9481 47.1995 18.9481C47.1767 18.9481 47.1512 18.9558 47.1224 18.9724C46.7611 19.1815 47.7051 21.3821 47.6886 24.1284C47.6858 24.5275 47.4481 24.8857 47.0844 25.0316C46.6134 25.2203 45.9986 25.4434 45.3997 25.6539C45.3712 25.6639 45.3435 25.6685 45.3171 25.6685C45.1674 25.6685 45.0588 25.5186 45.0743 25.3449C45.1599 24.4147 45.3932 22.8836 45.4145 20.645C45.4338 18.6077 45.3726 17.1216 45.1144 15.5461C45.0027 14.8656 45.3688 14.2998 45.9374 14.2538C46.1952 14.233 46.4795 14.2381 46.7417 14.233C46.7467 14.233 46.7517 14.233 46.7567 14.233M50.1757 14.6223C50.1838 14.6223 50.1919 14.6227 50.2001 14.6237C50.2001 14.6237 50.2116 14.6255 50.2323 14.628C50.2362 14.6284 51.5975 14.8573 51.9636 15.1161C52.4736 15.4767 52.0065 17.0132 51.9525 17.6941C51.9929 17.6543 52.0946 17.5468 52.1382 17.5117C52.2674 17.4084 52.4191 17.3608 52.5688 17.3608C52.8496 17.3608 53.1235 17.5286 53.2289 17.8135L53.2298 17.8126L53.2308 17.8112C53.4236 18.333 53.5733 18.921 53.6522 19.2973C53.7017 19.5343 53.6382 19.7797 53.4799 19.9677C53.2563 20.2335 52.9955 20.5278 52.7886 20.7573C52.7309 20.8217 52.6533 20.8513 52.5766 20.8513C52.4523 20.8513 52.3304 20.7732 52.2988 20.6383C52.2622 20.4829 52.23 20.3033 52.2156 20.118C52.1291 19.0105 52.2166 18.8754 52.0617 18.8409C52.052 18.8387 52.0428 18.8378 52.034 18.8378C51.8025 18.8378 51.8746 19.5566 52.03 20.1944C52.0631 20.3309 52.0983 20.4508 52.1324 20.5573C52.2012 20.7383 52.2729 20.8909 52.3278 21C52.3855 21.1142 52.3658 21.2516 52.2787 21.3455C51.938 21.7117 51.4777 22.1857 51.2612 22.3397C51.2326 22.3598 51.1988 22.3722 51.1644 22.3722C51.1561 22.3722 51.1478 22.3714 51.1395 22.37C51.0621 22.3558 51.0092 22.288 51.0125 22.2127L51.0303 21.7042C51.0395 20.9118 51.0009 19.6304 50.8553 18.243C50.8249 17.9568 50.6128 16.3692 50.0967 15.1257C50.0865 15.104 50.0765 15.0821 50.0663 15.0613C50.0596 15.0471 50.0543 15.0323 50.0499 15.0172C50.0325 14.9779 50.0149 14.9386 49.997 14.9001C49.9754 14.8537 49.9686 14.8006 49.9859 14.7528C50.0156 14.6721 50.0931 14.6224 50.1757 14.6224M43.7803 14.6503C44.8916 14.6503 45.2385 15.6342 45.0776 17.1958L45.0771 17.1967C44.9583 18.3459 44.5566 19.2538 44.382 19.6041C44.3315 19.7045 44.3257 19.8212 44.3681 19.9253C45.0541 21.6148 45.1292 22.9321 45.0363 24.1761C44.9573 25.2334 44.1372 26.0688 43.1943 26.3413C42.6209 26.5072 41.9884 26.6806 41.4548 26.8237C41.3732 26.8458 41.2919 26.8562 41.2118 26.8562C40.7141 26.8562 40.2748 26.4502 40.2214 25.885C40.0997 24.5876 40.076 23.1611 39.8331 21.5362C39.5367 19.5506 37.9511 18.5205 37.1805 17.4973C36.9856 17.2381 37.0838 16.8548 37.3652 16.7178C38.1085 16.3552 39.176 15.9624 39.9924 15.727C40.0521 15.7097 40.1126 15.7011 40.1721 15.7012C40.3692 15.7012 40.5555 15.7954 40.6693 15.9792C41.4799 17.2899 41.6511 20.4574 41.6194 21.4948C41.5958 22.2572 41.5462 22.8212 41.5837 23.216C41.664 23.7143 41.9967 23.7988 42.2128 23.7988C42.3234 23.7988 42.4035 23.7767 42.4035 23.7767C43.1684 23.5918 43.1751 22.6636 43.0881 22.0409C43.0684 21.9233 43.0483 21.8182 43.03 21.7305C42.5122 21.5063 42.2102 21.1042 42.0456 20.7998C41.9321 20.5884 41.9504 20.3301 42.099 20.1415C42.6247 19.4752 42.6311 18.9265 42.6311 18.9265C42.3622 18.5806 41.4236 17.5106 41.3422 16.5059C41.2442 15.2994 41.8079 15.0463 43.2126 14.7221C43.4207 14.6741 43.6096 14.6509 43.7804 14.6509M43.4676 17.4513C43.4707 17.4513 43.474 17.4513 43.4771 17.4508C43.6017 17.4398 43.6888 17.219 43.6705 16.9589C43.6526 16.7054 43.5417 16.5064 43.4208 16.5064C43.4177 16.5064 43.4144 16.5064 43.4113 16.5068C43.2866 16.5178 43.2001 16.7381 43.218 16.9987C43.2358 17.2522 43.3467 17.4513 43.4676 17.4513ZM53.2178 15.4914C53.3002 15.4914 53.3908 15.5034 53.4884 15.5286C54.4929 15.7888 55.1442 16.1536 55.5526 16.3372L55.554 16.3381H55.5545C55.7311 16.4173 55.8013 16.629 55.7051 16.7954C55.5545 17.056 55.3771 17.3357 55.2057 17.5978C55.1466 17.6881 55.0508 17.7326 54.9553 17.7326C54.8533 17.7326 54.7515 17.6819 54.6944 17.5821C54.6471 17.5006 54.5982 17.4086 54.5558 17.3019C54.4105 16.9375 54.2379 16.7774 54.1452 16.7774C54.0524 16.7774 54.0382 16.9497 54.2321 17.2451C54.3028 17.3531 54.4396 17.5563 54.5569 17.6497C54.7882 17.834 54.8364 18.1625 54.6695 18.4051C54.5444 18.5871 54.4256 18.7515 54.3232 18.8908C54.2584 18.9786 54.1622 19.0202 54.0665 19.0202C53.9415 19.0202 53.8176 18.9492 53.7667 18.8168C53.1673 17.5321 52.7582 16.6313 52.6891 16.3427C52.6789 16.3062 52.6708 16.2701 52.6645 16.2347C52.6645 16.2347 52.6645 16.2347 52.6649 16.2347C52.6733 16.2347 52.8421 16.2926 52.8421 16.2926L52.6631 16.2296C52.5898 15.7941 52.8038 15.4914 53.2181 15.4914M27.0838 16.7481C27.3615 16.7481 27.6286 16.887 27.7799 17.1317C28.08 17.6164 28.4933 18.4746 28.8055 19.8546C29.3562 22.2914 28.2316 22.687 27.3152 23.3457C26.3972 24.0049 25.8089 23.8988 26.0047 25.1058C26.0047 25.1058 26.4561 24.4068 27.3037 24.4068C27.425 24.4068 27.5542 24.4211 27.6913 24.4538C28.6655 24.6851 28.7267 26.5744 28.3946 27.7606V27.7611H28.3951C28.0752 28.9029 27.6468 29.053 26.9052 29.053C26.8583 29.053 26.8101 29.0524 26.7607 29.0514C26.5481 29.0514 26.3701 29.0476 26.2223 29.0425C25.873 29.0297 25.5594 28.8274 25.4117 28.515C24.734 27.0829 24.3491 25.7215 24.1678 24.9723V24.9709C24.0961 24.6899 23.9984 24.235 23.9946 24.2123C23.9937 24.2089 23.9937 24.2076 23.9937 24.2076C23.9874 24.1669 23.9826 24.1256 23.9826 24.084C23.9798 23.7243 24.1798 23.3764 24.5161 23.1688C25.1526 22.776 25.1737 22.7229 25.5442 22.4756C26.1494 22.0714 25.8608 21.7624 25.6659 21.6056C24.5036 20.6673 23.7709 20.0314 22.8512 19.3167C22.6939 19.195 22.4259 18.9438 22.7949 18.7239C23.3087 18.4177 23.7273 18.2083 24.2113 17.9847C25.0266 17.5719 26.0369 17.0857 26.7913 16.8019C26.8871 16.766 26.9862 16.7487 27.084 16.7487M26.8943 27.3416C27.0383 27.3416 27.1669 27.1903 27.1839 26.9989C27.2008 26.8046 27.0968 26.643 26.9501 26.6384C26.9479 26.6384 26.9457 26.6384 26.9434 26.6384C26.7993 26.6384 26.6707 26.7897 26.6537 26.9811C26.6368 27.1754 26.7413 27.337 26.8875 27.3416C26.8897 27.3416 26.8919 27.3416 26.8943 27.3416ZM28.4576 17.3422C28.4798 17.3422 28.503 17.3474 28.5257 17.3593V17.3583L30.0304 18.1274C30.1277 18.1767 30.1353 18.3089 30.0468 18.3729C29.7703 18.572 29.3953 19.3164 29.5008 20.7981C29.5066 20.881 29.4402 20.9522 29.3555 20.9522C29.2808 20.9522 29.2183 20.8977 29.2106 20.8248C29.164 20.4003 28.946 18.7928 28.3278 17.5493C28.2771 17.4474 28.3583 17.3422 28.4575 17.3422M35.9568 17.4294C36.0253 17.4294 36.0882 17.436 36.1437 17.4503C37.4855 17.7944 37.2333 19.4108 37.1429 20.0671C37.0525 20.7234 36.4972 22.1124 35.8719 22.3313L35.871 22.3318H35.8719C35.8719 22.3318 35.8741 22.3315 35.878 22.3315C35.9331 22.3315 36.3319 22.379 36.0485 23.7846C35.7141 25.4408 34.8189 29.1125 32.7983 32.3515C32.5617 32.7307 32.1841 33.0041 31.7467 33.1148C30.9805 33.3092 29.6132 33.6053 27.8881 33.7656C27.8712 33.7671 27.8543 33.7679 27.8378 33.7679C27.5091 33.7679 27.2557 33.4666 27.3272 33.1424C27.5288 32.2259 27.9222 30.5962 28.363 29.631C28.4878 29.3582 28.764 29.1898 29.0587 29.1898C29.1136 29.1898 29.1693 29.1957 29.2247 29.2078C29.5726 29.2838 30.0506 29.3619 30.5469 29.3619C30.9353 29.3619 31.3347 29.314 31.6912 29.1798C32.8675 28.7362 34.1501 25.3067 34.2896 23.2434C34.3016 23.0619 34.1732 22.9018 33.9913 22.871C33.9561 22.8653 33.9172 22.8577 33.8748 22.8502C33.7155 22.8198 33.5973 22.6326 33.6078 22.4734C33.6179 22.325 33.6395 22.136 33.6857 21.9493C33.7328 21.7575 33.9054 21.6194 34.1061 21.6176C34.3644 21.6144 34.7388 21.5536 34.9947 21.2689C35.405 20.812 35.6196 19.6634 35.2189 19.5013C35.1707 19.4819 35.1285 19.4729 35.0914 19.4729C34.8431 19.4729 34.8372 19.8723 34.9653 20.1647C34.9889 20.2183 35.0091 20.266 35.0258 20.3083C35.0956 20.4827 35.0388 20.6807 34.8868 20.794C34.6592 20.9636 34.2735 21.1981 33.7692 21.3091C33.7437 21.3146 33.7185 21.3174 33.6938 21.3174C33.5482 21.3174 33.4185 21.2248 33.3589 21.0855C33.2377 20.8026 33.065 20.2989 33.0857 19.4729C33.1005 18.8843 33.2463 18.5498 33.661 18.3091C34.2377 17.9741 35.3354 17.4295 35.9568 17.4295M37.4877 18.3544C37.5174 18.3544 37.5477 18.3652 37.5721 18.3901C37.9632 18.7891 38.4346 19.2176 38.7296 19.7218C38.7743 19.799 38.7238 19.881 38.63 19.8876C38.0378 19.9303 37.7742 20.0881 37.5654 20.1449C37.5543 20.148 37.5432 20.1496 37.5324 20.1496C37.4655 20.1496 37.409 20.0941 37.4201 20.028C37.5096 19.5105 37.4711 18.8527 37.3758 18.4869L37.3754 18.486C37.356 18.4111 37.4199 18.3544 37.4877 18.3544ZM30.5775 18.4555C30.7161 18.4555 30.8719 18.4945 31.0426 18.5826C31.4567 18.7963 31.9495 19.0763 32.3507 19.4152C32.7187 19.7256 32.9665 20.1516 33.0603 20.6198C33.1922 21.2818 33.3904 22.4689 33.4043 23.6897C33.4249 25.5307 33.6117 27.4854 32.3868 27.6395C31.9764 27.6911 31.6599 27.7276 31.427 27.7276C30.9647 27.7276 30.8317 27.5834 30.9468 27.1258C31.12 26.4377 31.6213 25.5961 31.7339 24.1692C31.844 22.7739 31.7008 22.4694 31.4743 22.4694C31.4691 22.4694 31.4639 22.4696 31.4588 22.4699C31.2231 22.4831 31.3005 23.0716 31.3962 23.6081C31.4919 24.1445 31.8118 24.6359 31.0912 24.9577C30.9138 25.0369 30.7829 25.0694 30.6859 25.0694C30.3679 25.0694 30.4161 24.7199 30.3998 24.5213C30.3845 24.333 30.3149 24.1985 30.2223 24.1985C30.1871 24.1985 30.1488 24.2179 30.1088 24.2612C29.9634 24.4185 30.0886 24.7521 30.1713 25.1891C30.2541 25.626 30.5702 27.0193 30.7318 27.9438C30.8483 28.6146 30.9913 29.1849 30.2969 29.1849C30.281 29.1849 30.2647 29.1846 30.2478 29.184C29.4252 29.1541 28.9316 29.1541 28.8454 28.4485C28.7457 27.6278 28.5779 25.0597 28.6303 23.7143L28.6308 23.7139H28.6317C28.6821 22.4195 28.8918 21.1832 29.7307 21.1832C29.7637 21.1832 29.798 21.1852 29.833 21.1891C29.833 21.1891 29.693 20.0953 29.8643 19.1538C29.9356 18.7616 30.1893 18.4556 30.5774 18.4558M45.0377 18.7715C45.0749 18.7715 45.1122 18.7983 45.1167 18.8478C45.1596 19.3486 45.2087 20.1519 45.1702 20.8878C45.1675 20.939 45.1294 20.9669 45.091 20.9669C45.0595 20.9669 45.028 20.9479 45.0163 20.9077C44.9359 20.63 44.8133 20.2489 44.6487 19.85C44.6202 19.7808 44.6223 19.7022 44.6531 19.6344V19.634C44.7268 19.4728 44.8657 19.1526 44.9639 18.8298C44.9759 18.7902 45.0069 18.7715 45.0379 18.7715M38.902 20.1143C39.1543 20.1143 39.3309 20.3667 39.306 20.6015L39.3065 20.602H39.3069C39.2372 21.2635 38.6536 21.843 39.4763 23.3685C39.945 24.2367 40.1431 25.058 40.0133 25.9862C39.8277 27.3136 38.637 27.4718 38.088 27.596C37.8304 27.6543 37.4077 27.7806 36.9929 27.7806C36.4724 27.7806 35.964 27.5814 35.81 26.798C35.6301 25.8844 35.8109 25.2498 36.0591 24.5566C36.1511 24.3002 36.4416 24.1145 36.7129 24.0999C36.8124 24.0945 36.9229 24.0906 37.0348 24.0906C37.3018 24.0906 37.5768 24.1126 37.7295 24.1898C38.0971 24.3755 37.8676 24.9614 37.8007 25.2167C37.7738 25.3206 37.8271 25.4343 37.9233 25.4816C37.9525 25.4953 37.9834 25.5018 38.0139 25.5018C38.1005 25.5018 38.1845 25.45 38.2211 25.3656C38.5674 24.568 37.7545 24.0387 37.2229 22.9602C36.8606 22.2252 36.9072 21.4461 37.0117 21.0367C37.0766 20.7807 37.2681 20.5581 37.5163 20.4704C38.0484 20.2827 38.541 20.1457 38.8676 20.1158C38.8791 20.1147 38.8906 20.1143 38.9018 20.1143M22.3081 23.3453C22.6998 23.3453 22.9765 23.4086 23.1071 23.4467C23.1537 23.4594 23.1778 23.5083 23.1615 23.5533C23.1356 23.6239 23.1168 23.6864 23.1043 23.7339C23.0885 23.7926 23.0422 23.8396 22.9821 23.8538C21.941 24.1002 21.2681 24.7233 20.9458 25.0934C20.8231 25.2347 20.8457 25.4485 20.9944 25.5631C21.0771 25.6275 21.1536 25.693 21.2171 25.7503C21.3288 25.8508 21.3567 26.0138 21.2846 26.1451C20.9944 26.6749 20.5711 27.2416 20.3392 27.5387C20.2511 27.652 20.2863 27.8164 20.4143 27.8833C21.0287 28.2036 21.5713 28.2961 21.9129 28.3178C22.1159 28.3311 22.2597 28.5192 22.2159 28.7149C22.2001 28.785 22.1836 28.8542 22.1683 28.9177C22.1245 29.0978 22.239 29.2769 22.4233 29.3139C22.7 29.3699 22.9396 29.3969 23.1883 29.3969C23.4081 29.3969 23.6349 29.3758 23.9001 29.3351C24.0749 29.2963 24.3053 29.2299 24.5971 29.1114C24.6146 29.1043 24.6331 29.1009 24.6513 29.1009C24.6879 29.1009 24.724 29.1148 24.7515 29.1408C24.7958 29.183 24.8598 29.2399 24.933 29.2934L24.9325 29.2924C25.0051 29.3459 25.0132 29.4488 24.9483 29.5105C24.7615 29.6868 24.3893 30.0051 23.9577 30.19C23.2631 30.543 22.6361 30.6531 22.6361 30.6531C21.9647 30.807 21.2431 30.8498 20.649 30.8498C19.9086 30.8498 19.3663 30.7834 19.3663 30.7834C19.3913 30.1897 19.4977 29.6703 19.4977 29.6703C19.4374 29.674 19.3753 29.6758 19.3114 29.6758C18.0962 29.6758 16.2514 29.0382 16.2514 29.0382C17.6947 27.9018 18.4009 26.5887 18.4018 26.5872C17.8894 26.318 17.4314 25.8622 17.4314 25.8622L19.0223 24.6524C20.3952 23.5759 21.5611 23.3454 22.3081 23.3454M35.555 26.9197C35.5661 26.9197 35.5774 26.9211 35.5886 26.9242C35.6373 26.9379 35.6695 26.9792 35.6795 27.0274C35.7569 27.4042 35.9489 27.6663 36.1491 27.7851C36.2429 27.841 36.2207 27.9808 36.1134 28.0036C35.8994 28.0495 35.4139 28.1397 35.2899 28.1586C35.2777 28.1605 35.2661 28.1614 35.2553 28.1614C35.1561 28.1614 35.1155 28.0867 35.1446 28.0052L35.145 28.0038L35.4341 27.0096C35.45 26.9552 35.5001 26.9197 35.5548 26.9197M46.7573 13C46.7445 13 46.7318 13 46.719 13.0003C46.7184 13.0003 46.7178 13.0003 46.7171 13.0003C46.6491 13.0017 46.5775 13.0023 46.5014 13.0029C46.297 13.0046 46.0652 13.0065 45.8356 13.0251C45.3743 13.0624 44.9509 13.2422 44.6113 13.5399C44.3728 13.4641 44.0973 13.417 43.7809 13.417C43.513 13.417 43.2259 13.452 42.9277 13.5207C42.1698 13.6956 41.4448 13.8899 40.9043 14.3423C40.8293 14.405 40.7593 14.4714 40.6942 14.5414C40.5276 14.4928 40.3523 14.4676 40.1724 14.4676C39.9933 14.4676 39.8145 14.493 39.6409 14.5431C38.6918 14.8169 37.5812 15.2363 36.8113 15.6117C36.5326 15.7473 36.2992 15.9519 36.1298 16.2026C36.073 16.1982 36.0153 16.1959 35.9567 16.1959C35.5048 16.1959 34.9634 16.3308 34.3015 16.6087C33.7206 16.8525 33.2153 17.1358 33.0251 17.2463C32.7345 17.415 32.4952 17.6246 32.3102 17.8722C32.1024 17.7462 31.8747 17.6194 31.6229 17.4895C31.3906 17.3696 31.155 17.2896 30.9191 17.2503C30.8253 17.1636 30.7191 17.0896 30.6038 17.031L29.1016 16.2632C29.0598 16.2418 29.017 16.223 28.9736 16.2065C28.8371 16.153 28.6924 16.1207 28.5462 16.1114C28.4093 15.9764 28.2532 15.8606 28.0825 15.7681C27.7775 15.6028 27.4322 15.5152 27.0838 15.5152C26.8309 15.5152 26.5827 15.5602 26.3459 15.6491C26.3454 15.6491 26.3451 15.6495 26.3446 15.6496C25.6767 15.9009 24.7734 16.3139 23.6594 16.8774C23.2272 17.0776 22.7445 17.3127 22.1473 17.6685C21.9438 17.7898 21.7754 17.939 21.6467 18.1118C21.4766 18.3401 21.3776 18.6072 21.3606 18.8846C21.3446 19.1416 21.3914 19.5306 21.7045 19.9235C21.8064 20.0512 21.9285 20.1697 22.0782 20.2855C22.6067 20.6961 23.0718 21.0801 23.6101 21.5247C23.7723 21.6586 23.9441 21.8005 24.1269 21.9506C24.0525 21.9987 23.9632 22.0551 23.852 22.1236C23.7608 22.1799 23.6737 22.242 23.5912 22.3092C23.5471 22.2913 23.5019 22.2757 23.4559 22.2626C23.2172 22.1937 22.826 22.1124 22.3085 22.1124C21.3717 22.1124 19.9079 22.3848 18.2509 23.6816L16.667 24.886C16.3831 25.1019 16.207 25.4274 16.1831 25.7798C16.1591 26.1322 16.29 26.4778 16.5422 26.729C16.5586 26.7453 16.6107 26.7965 16.6909 26.8693C16.3928 27.2349 15.9855 27.6691 15.4701 28.0748C15.1147 28.3546 14.9414 28.8026 15.0178 29.2444C15.0941 29.6861 15.4077 30.0526 15.8371 30.201C15.8579 30.2081 16.3526 30.3785 17.0063 30.5484C17.4029 30.6515 17.7732 30.7327 18.1149 30.7918C18.119 31.4072 18.5858 31.9297 19.2119 32.0065C19.2372 32.0095 19.8404 32.0823 20.649 32.0823C21.4577 32.0823 22.2381 32.0072 22.8942 31.8593C23.0735 31.8246 23.7478 31.6775 24.4964 31.303C25.0579 31.0543 25.5215 30.6765 25.814 30.4004C25.8148 30.3997 25.8155 30.399 25.8162 30.3984C25.8639 30.3531 25.9081 30.3048 25.9483 30.2541C26.0235 30.2648 26.0997 30.2714 26.1761 30.2742C26.1766 30.2742 26.1771 30.2742 26.1777 30.2742C26.3579 30.2805 26.55 30.2839 26.7485 30.284C26.761 30.2843 26.7732 30.2845 26.7851 30.2846C26.5088 31.1443 26.2738 32.11 26.1042 32.8808C25.9899 33.3996 26.1184 33.9348 26.4571 34.3485C26.796 34.7625 27.2992 35 27.8378 35C27.8934 35 27.9497 34.9974 28.0053 34.9923C29.7725 34.8282 31.1849 34.5297 32.0586 34.3081C32.4323 34.2134 32.7792 34.0511 33.0897 33.8258C33.4013 33.5998 33.6619 33.3209 33.8643 32.9967C34.5486 31.8998 35.1627 30.6745 35.6983 29.3396C35.9157 29.3005 36.2151 29.2434 36.3801 29.208C36.5517 29.1712 36.7117 29.1038 36.8542 29.0094C36.8999 29.0114 36.9462 29.0123 36.9929 29.0123C37.4856 29.0123 37.9361 28.9018 38.2342 28.8286C38.2846 28.8163 38.332 28.8046 38.3675 28.7966C38.3982 28.7896 38.4356 28.7816 38.4751 28.7732C38.8202 28.6996 39.3977 28.5764 39.9443 28.2297C40.0936 28.1351 40.2312 28.0297 40.3568 27.9146C40.6255 28.0284 40.9154 28.0882 41.2126 28.0882C41.4048 28.0882 41.5972 28.0628 41.7843 28.0126C42.2386 27.8907 42.9136 27.707 43.5477 27.5235C43.8971 27.4225 44.2328 27.2712 44.5453 27.0737C44.662 26.9999 44.7745 26.9203 44.8821 26.8354C45.0222 26.8787 45.1691 26.9014 45.3178 26.9014C45.4887 26.9014 45.6579 26.8723 45.821 26.8149C46.5465 26.5601 47.1306 26.3444 47.5563 26.1738C47.5566 26.1738 47.5568 26.1736 47.5571 26.1735C47.9316 26.0232 48.2536 25.7762 48.4951 25.4552C48.5308 25.4576 48.5665 25.4586 48.602 25.4586C48.9179 25.4586 49.2292 25.3711 49.502 25.2055C50.2617 24.7446 50.8489 24.2937 51.1312 24.0661C51.325 23.9099 51.4932 23.7276 51.6319 23.5262C51.7584 23.4823 51.8792 23.4203 51.991 23.3413C51.9923 23.3403 51.9935 23.3394 51.9948 23.3386C52.0885 23.2719 52.3736 23.0691 53.2025 22.1777C53.2028 22.1774 53.2029 22.1771 53.2032 22.1769C53.3055 22.0668 53.39 21.9441 53.4552 21.8122C53.5538 21.7446 53.6448 21.665 53.726 21.5749C53.916 21.3641 54.1946 21.051 54.4444 20.7544C54.6165 20.5497 54.7479 20.311 54.8279 20.0585C55.0271 19.9494 55.2018 19.797 55.3366 19.6142C55.3368 19.6139 55.3371 19.6136 55.3372 19.6133C55.4735 19.4281 55.5942 19.2586 55.7064 19.0956C55.8085 18.9472 55.8866 18.7863 55.9394 18.6183C56.0617 18.5191 56.1697 18.4005 56.2584 18.2649C56.4819 17.9229 56.6517 17.6497 56.7935 17.4044C57.0126 17.0256 57.0601 16.5698 56.9236 16.1543C56.7892 15.7451 56.4872 15.4074 56.0932 15.2242C56.0863 15.2209 56.0793 15.2177 56.0724 15.2146C56.0086 15.1859 55.9297 15.1482 55.8385 15.1044C55.4003 14.8943 54.7382 14.5767 53.8073 14.3357C53.6084 14.284 53.41 14.2579 53.2186 14.2579C53.1086 14.2579 53.0008 14.2663 52.8957 14.2833C52.8263 14.215 52.7575 14.1594 52.6943 14.1147C52.3924 13.9013 51.9604 13.7401 51.2496 13.5752C50.8631 13.4857 50.4647 13.414 50.3871 13.4046C50.3859 13.4046 50.3848 13.4043 50.3835 13.4042C50.3727 13.4026 50.3618 13.4011 50.3508 13.3999C50.2931 13.3929 50.2345 13.3895 50.1764 13.3895C50.0729 13.3895 49.9708 13.4002 49.8711 13.4213C49.6234 13.2977 49.3503 13.212 49.0578 13.1684C49.0574 13.1684 49.0571 13.1684 49.0568 13.1684C48.7856 13.1282 48.5358 13.1079 48.3143 13.1079C48.0579 13.1079 47.83 13.1348 47.6267 13.1895C47.3534 13.0647 47.0584 13 46.7573 13Z" fill="white"/>
<path d="M28.6388 23.7218C28.5864 25.0672 28.7542 27.6351 28.8539 28.4558C28.9401 29.1614 29.4336 29.1614 30.2563 29.1913C31.0063 29.2183 30.8596 28.6373 30.7403 27.9512C30.5785 27.0266 30.2626 25.6333 30.1798 25.1965C30.0971 24.7596 29.9719 24.4259 30.1173 24.2685C30.2626 24.1112 30.3871 24.269 30.4083 24.5286C30.4295 24.7878 30.3409 25.3039 31.0997 24.965C31.8203 24.6433 31.5004 24.1519 31.4047 23.6155C31.309 23.0791 31.2316 22.4905 31.4673 22.4772C31.7025 22.4635 31.855 22.7496 31.7424 24.1765C31.6298 25.6034 31.1286 26.4451 30.9553 27.1331C30.7822 27.8213 31.1699 27.8008 32.3951 27.6468C33.62 27.4927 33.4333 25.5379 33.4126 23.697C33.3987 22.4763 33.2005 21.2892 33.0687 20.6272C32.9748 20.1589 32.7271 19.733 32.359 19.4225C31.9578 19.0836 31.4651 18.8037 31.0509 18.5899C30.4024 18.2554 29.9694 18.6288 29.8728 19.161C29.7015 20.1027 29.8415 21.1962 29.8415 21.1962C28.9174 21.093 28.6926 22.3758 28.6402 23.721H28.6393L28.6388 23.7215V23.7218Z" fill="#007BFC"/>
<path d="M35.8789 22.3394C36.5043 22.1204 37.0596 20.7316 37.15 20.0752C37.2404 19.4189 37.4925 17.8025 36.1508 17.4584C35.5908 17.3148 34.3082 17.945 33.668 18.3172C33.2533 18.5578 33.1076 18.8924 33.0927 19.481C33.0721 20.3069 33.2447 20.8107 33.366 21.0936C33.4357 21.2566 33.6012 21.3557 33.7762 21.3173C34.2804 21.2064 34.6662 20.9718 34.8938 20.8022C35.0459 20.6889 35.1027 20.4908 35.0329 20.3165C35.016 20.2743 34.9958 20.2265 34.9724 20.1729C34.8252 19.837 34.8549 19.3597 35.2259 19.5094C35.6266 19.6715 35.412 20.8201 35.0018 21.277C34.7459 21.5617 34.3716 21.6224 34.1132 21.6257C33.9125 21.6275 33.7398 21.7656 33.6927 21.9574C33.6466 22.144 33.6248 22.3333 33.6148 22.4815C33.6042 22.6407 33.7226 22.8279 33.8818 22.8582C33.9242 22.8658 33.9632 22.8733 33.9984 22.879C34.1803 22.9099 34.3087 23.07 34.2966 23.2515C34.1571 25.3148 32.8745 28.7442 31.6983 29.1879C30.8863 29.4936 29.8519 29.3514 29.2317 29.2158C28.8796 29.1386 28.5183 29.3153 28.3702 29.6391C27.9296 30.6043 27.536 32.234 27.3344 33.1505C27.2593 33.4912 27.5428 33.8063 27.8953 33.7736C29.6204 33.6134 30.9877 33.3172 31.7539 33.1229C32.1913 33.012 32.5689 32.7386 32.8055 32.3595C34.8261 29.1205 35.7214 25.449 36.0557 23.7927C36.3598 22.2852 35.8791 22.3397 35.8791 22.3397H35.8782L35.8791 22.3393L35.8789 22.3394Z" fill="#007BFC"/>
<path d="M39.3128 20.6083C39.3388 20.3629 39.145 20.0984 38.8745 20.1226C38.5479 20.1525 38.0552 20.2895 37.5233 20.4772C37.275 20.5649 37.0836 20.7875 37.0187 21.0435C36.9143 21.4529 36.8676 22.232 37.2298 22.967C37.7615 24.0457 38.5744 24.5748 38.2281 25.3724C38.1785 25.4866 38.0424 25.5411 37.9302 25.4886C37.8341 25.4411 37.7807 25.3274 37.8076 25.2237C37.8744 24.9684 38.104 24.3825 37.7364 24.1968C37.52 24.0873 37.0567 24.0888 36.7199 24.1068C36.4485 24.1215 36.1581 24.3073 36.0661 24.5636C35.8178 25.2568 35.6369 25.8914 35.8169 26.805C36.0936 28.2125 37.5137 27.7342 38.0948 27.603C38.6437 27.4788 39.8345 27.3206 40.0201 25.9932C40.1499 25.0648 39.9518 24.2437 39.4831 23.3755C38.6606 21.8502 39.2441 21.2705 39.3139 20.609H39.3134L39.313 20.6085L39.3128 20.6083Z" fill="#007BFC"/>
<path d="M45.0868 17.2036C45.2725 15.402 44.7823 14.3692 43.2217 14.7295C41.817 15.0537 41.2532 15.3067 41.3513 16.5133C41.4326 17.5179 42.3711 18.588 42.6402 18.9339C42.6402 18.9339 42.6339 19.4826 42.108 20.1489C41.9595 20.3375 41.9412 20.5958 42.0546 20.8072C42.2191 21.1114 42.5211 21.5137 43.0389 21.7379C43.0572 21.8256 43.0774 21.9308 43.0971 22.0482C43.1842 22.6709 43.1773 23.5993 42.4124 23.7841C42.4124 23.7841 41.7139 23.9769 41.5927 23.2235C41.5551 22.8287 41.6047 22.2649 41.6283 21.5023C41.6601 20.4649 41.4888 17.2976 40.6783 15.9867C40.5301 15.7474 40.2592 15.6602 40.0014 15.7346C39.1851 15.9701 38.1176 16.363 37.3743 16.7254C37.0929 16.8624 36.9947 17.2458 37.1896 17.505C37.9602 18.5282 39.5458 19.5583 39.8422 21.5439C40.0851 23.1688 40.1087 24.5952 40.2304 25.8927C40.2925 26.5485 40.8741 26.9901 41.4639 26.8314C41.9975 26.6884 42.63 26.5149 43.2036 26.3489C44.1465 26.0765 44.9667 25.241 45.0455 24.1838C45.1384 22.9398 45.0634 21.6225 44.3773 19.933C44.3349 19.8289 44.3407 19.7122 44.3913 19.6117C44.5658 19.2615 44.9676 18.3536 45.0864 17.2044L45.0868 17.2034V17.2036ZM43.4862 17.458C43.3616 17.4689 43.2452 17.266 43.2269 17.0059C43.2091 16.7453 43.2957 16.525 43.4202 16.514C43.5447 16.5031 43.6613 16.706 43.6796 16.9661C43.6979 17.2262 43.6107 17.4471 43.4862 17.458Z" fill="#007BFC"/>
<path d="M49.9443 15.2413C49.7668 14.7844 49.4075 14.475 48.8793 14.3964C48.3163 14.3131 47.9874 14.35 47.8435 14.4366C47.6423 14.557 47.5799 14.8058 47.5799 14.8058C47.5785 14.8015 47.5765 14.7974 47.5746 14.7935C47.4346 14.4633 47.1032 14.2357 46.7509 14.2423C46.4888 14.2476 46.2044 14.2423 45.9466 14.2631C45.378 14.3091 45.0119 14.8749 45.1236 15.5553C45.3818 17.1309 45.443 18.6171 45.4237 20.6542C45.4026 22.8929 45.1692 24.4241 45.0835 25.3542C45.0652 25.5585 45.2187 25.73 45.4087 25.6632C46.0076 25.4528 46.6225 25.2295 47.0935 25.0409C47.4571 24.895 47.6949 24.5367 47.6977 24.1376C47.7141 21.3916 46.7701 19.1908 47.1315 18.9817C47.4288 18.8098 47.3878 19.5882 47.4147 20.0613C47.4263 20.2702 47.5899 20.4385 47.7944 20.4504C48.0632 20.4655 48.2667 20.4442 48.4111 20.4148C48.5766 20.3817 48.7008 20.2424 48.721 20.0713C48.87 18.8031 48.5599 18.0482 48.796 17.9119C49.0529 17.7635 49.1583 18.0986 48.9446 19.8094C48.8046 20.9301 48.3995 22.5631 48.1455 23.6298C48.0454 24.0497 48.4899 24.386 48.8536 24.1652C49.4761 23.7875 50.0101 23.3928 50.3469 23.1213C50.6413 22.8838 50.8218 22.5289 50.8415 22.1465C50.9064 20.8874 50.8025 18.8051 50.511 17.2712C50.3416 16.3802 50.1228 15.7022 49.9438 15.2425V15.2416L49.9443 15.2412V15.2413Z" fill="#007BFC"/>
<path d="M55.5603 16.3439C55.1519 16.1605 54.5006 15.7956 53.4961 15.5354C52.9078 15.3828 52.5824 15.714 52.6705 16.2362L52.8494 16.2992C52.8494 16.2992 52.6714 16.238 52.6719 16.2414C52.6782 16.277 52.6863 16.3129 52.6965 16.3494C52.7658 16.6381 53.1746 17.5389 53.774 18.8235C53.864 19.0571 54.1815 19.0998 54.3307 18.8975C54.4332 18.7582 54.552 18.5938 54.677 18.4118C54.8439 18.1691 54.7959 17.8407 54.5644 17.6564C54.4469 17.5631 54.3104 17.3598 54.2397 17.2518C53.8586 16.6713 54.2675 16.5666 54.5635 17.3087C54.6058 17.4153 54.6548 17.5073 54.702 17.5888C54.8126 17.7822 55.0912 17.7911 55.2134 17.6044C55.3846 17.3423 55.5622 17.0627 55.7126 16.802C55.8088 16.6357 55.7386 16.4239 55.562 16.3447H55.5615L55.5601 16.3437L55.5603 16.3439Z" fill="#007BFC"/>
<path d="M53.2372 17.8222C53.0755 17.3853 52.518 17.2237 52.1465 17.5203C52.1027 17.5554 52.0012 17.663 51.9609 17.7028C52.0148 17.0218 52.4819 15.4855 51.972 15.1248C51.6058 14.8661 50.2445 14.6371 50.2406 14.6366C50.2199 14.6343 50.2084 14.6323 50.2084 14.6323C50.117 14.6214 50.0269 14.6725 49.9942 14.7611C49.9769 14.8091 49.9836 14.8621 50.0053 14.9085C50.0232 14.9468 50.0408 14.9861 50.0582 15.0256C50.0626 15.0407 50.0679 15.0555 50.0746 15.0696C50.0848 15.0904 50.0948 15.1123 50.105 15.134C50.6212 16.3776 50.8333 17.965 50.8636 18.2513C51.0094 19.6389 51.0479 20.9202 51.0386 21.7125L51.0208 22.221C51.0174 22.2964 51.0704 22.364 51.1478 22.3784C51.1907 22.3859 51.234 22.3731 51.2695 22.348C51.486 22.1939 51.9463 21.7201 52.287 21.3538C52.3741 21.26 52.3938 21.1225 52.3361 21.0083C52.2812 20.8994 52.2096 20.7467 52.1407 20.5656C52.1066 20.459 52.0714 20.3391 52.0383 20.2027C51.8772 19.5408 51.8055 18.7916 52.07 18.8494C52.2249 18.8839 52.1374 19.019 52.2239 20.1265C52.2383 20.3118 52.2706 20.4914 52.3072 20.6468C52.3581 20.8649 52.6453 20.9345 52.7969 20.7658C53.0038 20.5364 53.2646 20.2422 53.4883 19.9762C53.6465 19.7881 53.71 19.5426 53.6605 19.3058C53.5816 18.9295 53.4319 18.3415 53.2391 17.8197L53.2381 17.8211L53.2372 17.822V17.8222Z" fill="#007BFC"/>
<path d="M28.4027 27.7681C28.7346 26.5819 28.6736 24.6926 27.6995 24.4613C26.6025 24.2003 26.0128 25.1134 26.0128 25.1134C25.817 23.9064 26.4053 24.0126 27.3233 23.3534C28.2397 22.6947 29.3645 22.2989 28.8136 19.8623C28.5014 18.4824 28.0882 17.6241 27.788 17.1393C27.5836 16.8085 27.1669 16.6712 26.7995 16.809C26.0451 17.0928 25.0349 17.579 24.2194 17.9918C23.7354 18.2155 23.3169 18.4249 22.803 18.7309C22.4341 18.9508 22.702 19.202 22.8593 19.3237C23.7792 20.0384 24.5119 20.6744 25.6741 21.6126C25.8688 21.7695 26.1575 22.0784 25.5524 22.4826C25.182 22.7299 25.1609 22.7831 24.5242 23.1759C24.1879 23.3834 23.9879 23.7314 23.9907 24.091C23.9907 24.1326 23.9956 24.1739 24.0018 24.2146C24.0018 24.2146 24.0018 24.216 24.0027 24.2194C24.0067 24.2422 24.1043 24.6971 24.1759 24.978V24.9794C24.3572 25.7286 24.7421 27.09 25.4199 28.5221C25.5675 28.8344 25.8813 29.0368 26.2304 29.0496C26.3781 29.0548 26.5561 29.0586 26.7688 29.0586C27.6002 29.0753 28.063 28.9824 28.403 27.7683H28.4026V27.7678L28.4027 27.7681ZM26.6617 26.9881C26.679 26.7938 26.8112 26.6408 26.9581 26.6456C27.1048 26.6503 27.2088 26.8118 27.1919 27.0061C27.1745 27.2005 27.0424 27.3535 26.8955 27.3487C26.7493 27.3439 26.6448 27.1824 26.6617 26.9881Z" fill="#007BFC"/>
<path d="M24.9415 29.3016C24.8683 29.248 24.8043 29.1913 24.76 29.1491C24.7187 29.1102 24.6585 29.0984 24.6056 29.1196C24.3136 29.2381 24.0832 29.3046 23.9085 29.3434C23.3427 29.4301 22.9526 29.4277 22.4316 29.3221C22.2474 29.2851 22.1329 29.1061 22.1767 28.9259C22.192 28.8625 22.2084 28.7933 22.2242 28.7232C22.268 28.5275 22.1243 28.3393 21.9212 28.3261C21.5796 28.3042 21.037 28.2119 20.4226 27.8915C20.2947 27.8247 20.2595 27.6604 20.3475 27.547C20.5793 27.2499 21.0028 26.6831 21.2929 26.1534C21.365 26.0221 21.3372 25.8591 21.2255 25.7586C21.162 25.7013 21.0855 25.6358 21.0028 25.5714C20.8542 25.4567 20.8315 25.243 20.9541 25.1017C21.2765 24.7316 21.9494 24.1084 22.9905 23.862C23.0506 23.8479 23.0969 23.801 23.1127 23.7421C23.1252 23.6947 23.1439 23.6321 23.1699 23.5615C23.1862 23.5166 23.1622 23.4677 23.1155 23.4549C22.7359 23.3444 21.1234 23.0195 19.0307 24.6605L17.4398 25.8703C17.4398 25.8703 17.8978 26.3261 18.4102 26.5953C18.4092 26.5967 17.703 27.9099 16.2598 29.0463C16.2598 29.0463 18.3038 29.7528 19.506 29.6784C19.506 29.6784 19.3997 30.1978 19.3746 30.7915C19.3746 30.7915 21.1359 31.0071 22.6445 30.6612C22.6445 30.6612 23.2714 30.5513 23.9661 30.1981C24.3976 30.0132 24.7699 29.6949 24.9566 29.5186C25.0216 29.4569 25.0134 29.3542 24.9408 29.3005L24.9413 29.3015L24.9415 29.3016Z" fill="#FF6B00"/>
<path d="M35.1518 28.0132C35.1196 28.1036 35.1729 28.1856 35.2971 28.1666C35.4211 28.1477 35.9066 28.0577 36.1206 28.0116C36.2279 27.9888 36.25 27.8491 36.1563 27.7931C35.9561 27.6742 35.7641 27.4121 35.6867 27.0355C35.6766 26.9871 35.6443 26.9459 35.5958 26.9322C35.5289 26.9142 35.4607 26.9521 35.4415 27.0176L35.1524 28.0118L35.1519 28.0132H35.1518Z" fill="#007BFC"/>
<path d="M28.5337 17.3658L30.0384 18.1348C30.1357 18.1841 30.1434 18.3164 30.0549 18.3803C29.7782 18.5794 29.4034 19.3238 29.5088 20.8056C29.5146 20.8885 29.4483 20.9596 29.3635 20.9596C29.2889 20.9596 29.2263 20.9051 29.2187 20.8322C29.1721 20.4075 28.954 18.8002 28.3359 17.5567C28.2738 17.432 28.4095 17.3023 28.5336 17.3667V17.3658H28.5337Z" fill="#007BFC"/>
<path d="M37.3829 18.4938C37.4781 18.8596 37.5166 19.5174 37.4272 20.0348C37.4142 20.1116 37.4925 20.1741 37.5725 20.1519C37.7813 20.0951 38.0448 19.9373 38.637 19.8946C38.7309 19.888 38.7814 19.806 38.7367 19.7288C38.4417 19.2246 37.9704 18.7962 37.5792 18.3971C37.4988 18.3152 37.3546 18.3853 37.3824 18.4928L37.3829 18.4938Z" fill="#007BFC"/>
<path d="M44.661 19.6417C44.7347 19.4806 44.8736 19.1603 44.9718 18.8375C44.9983 18.7503 45.1167 18.7649 45.1248 18.8556C45.1677 19.3564 45.2168 20.1596 45.1783 20.8956C45.1735 20.989 45.0504 21.0045 45.0244 20.9155C44.944 20.6378 44.8214 20.2567 44.6568 19.8578C44.6284 19.7886 44.6304 19.71 44.6612 19.6422V19.6417H44.661Z" fill="#007BFC"/>
<path d="M28.0259 29.0642C28.126 29.0861 28.2405 29.1396 28.3098 29.2656C28.3357 29.3126 28.4002 29.3197 28.4329 29.2775C28.4896 29.204 28.5854 29.1181 28.7538 29.0747C28.8034 29.0624 28.825 29.006 28.7957 28.9647C28.7202 28.8605 28.6196 28.6415 28.5966 28.2036C28.5922 28.1282 28.4865 28.1107 28.4585 28.1814C28.3542 28.4435 28.1949 28.7596 27.9914 28.9443C27.9486 28.9827 27.9699 29.0523 28.0265 29.0647H28.026V29.0642H28.0259Z" fill="#FF6B00"/>
<path d="M53.2598 17.1289C53.3093 17.291 53.3969 17.4392 53.5161 17.5616C53.4684 17.3986 53.3819 17.2488 53.2598 17.1289Z" fill="white"/>
<path d="M42.4999 20.8406C42.2294 20.5166 42.2362 20.4591 42.3546 20.0332C42.0708 20.4194 42.0827 20.6587 42.5119 20.9137C42.5388 20.9303 42.5659 20.9454 42.5937 20.9602C42.5576 20.9148 42.5337 20.883 42.4999 20.8403V20.8408V20.8406Z" fill="white"/>
<path d="M53.8097 19.7271C53.6927 19.8938 53.5879 20.0712 53.4922 20.2545C53.5316 20.2162 53.5715 20.1778 53.6111 20.1394C53.9882 19.7921 54.3289 19.3804 54.5458 18.877C54.2966 19.1556 54.0262 19.412 53.8097 19.7271Z" fill="#FF6B00"/>
<path d="M53.1642 16.8374C53.1749 16.8502 53.186 16.8629 53.1969 16.8748C53.1561 16.7839 53.1301 16.6871 53.097 16.5928C53.0877 16.5558 53.0796 16.5184 53.0729 16.481C53.045 16.3346 53.0075 16.1554 53.0098 16.0554C53.0098 16.052 53.0108 16.0752 53.0103 16.0681C53.0006 15.9473 53.0295 15.8222 53.1257 15.7402C52.9438 15.8028 52.8766 15.9953 52.8659 16.1695C52.8423 16.4373 52.98 16.7107 53.1214 16.8941C53.144 16.9254 53.1902 16.9973 53.2065 17.0021C53.1944 16.9462 53.1796 16.8916 53.1641 16.8368H53.1636L53.1641 16.8372L53.1642 16.8374Z" fill="white"/>
<path d="M24.9691 23.1736C24.8926 23.1953 24.831 23.2485 24.7637 23.2873C24.1312 23.6783 24.118 24.5176 24.4116 25.1109C24.4242 25.1408 24.4381 25.1691 24.4511 25.1985C24.4487 25.0431 24.4409 24.8887 24.4418 24.7332C24.4346 24.2948 24.4948 23.9247 24.6597 23.5655C24.7348 23.4394 24.8358 23.3152 24.9513 23.2138C24.9749 23.2015 24.9974 23.1869 24.9682 23.1736H24.9691Z" fill="white"/>
<path d="M28.5229 19.9474C28.5455 20.0507 28.5614 20.1664 28.5721 20.2867C28.5774 20.4237 28.5744 20.5606 28.5624 20.6975C28.5455 21.0159 28.5334 21.1042 28.4657 21.4198C28.4094 21.6378 28.3093 21.8297 28.2573 21.9737C28.2214 22.0539 28.1718 22.1267 28.1289 22.2039C28.087 22.293 28.0381 22.3779 27.976 22.4551C27.9062 22.5654 27.8109 22.6755 27.7402 22.755C27.7787 22.7317 27.8167 22.707 27.8538 22.6815C27.7859 22.763 27.7614 22.8132 27.8749 22.7564C27.9211 22.7336 28.0332 22.6388 28.0712 22.6038C28.4657 22.2266 28.735 21.7125 28.7591 21.1671C28.7735 20.7544 28.7216 20.316 28.5229 19.9473V19.9474Z" fill="white"/>
<path d="M28.391 25.8541C28.3877 25.5968 28.3521 25.3357 28.2241 25.1063C27.8955 24.5443 27.3568 24.4254 26.8281 24.8177C26.9681 24.7647 27.0798 24.7414 27.2212 24.7272C27.3506 24.7167 27.5364 24.7254 27.672 24.8131C27.8581 24.9282 27.9995 25.1172 28.0963 25.3035C28.1988 25.5011 28.2402 25.7902 28.3191 26.3082C28.321 26.321 28.3311 26.3281 28.3418 26.329C28.3441 26.3665 28.3475 26.4011 28.3524 26.4158C28.3596 26.3735 28.3668 26.331 28.3735 26.2888C28.4009 26.1475 28.4062 26.0006 28.3913 25.8556V25.8543L28.391 25.8541Z" fill="white"/>
<path d="M29.8152 28.8251C29.5122 28.7952 29.4515 28.491 29.3769 28.2522C29.2985 27.9645 29.2114 27.6797 29.1248 27.3945C29.1396 27.9035 29.0877 29.0986 29.9065 28.8778C29.9364 28.8712 29.9652 28.8631 29.9951 28.8554C29.935 28.8464 29.8748 28.8383 29.8156 28.8251H29.8152Z" fill="white"/>
<path d="M33.2293 30.3582C33.0485 30.6733 32.8527 30.9823 32.7117 31.3179C32.68 31.38 32.6459 31.4492 32.6097 31.5216C32.6025 31.533 32.5958 31.5439 32.5882 31.5552C32.4876 31.7191 32.4173 31.7897 32.3226 31.9461C32.1849 32.1452 32.1209 32.2708 31.9508 32.4229C31.9113 32.4613 31.856 32.5096 31.8242 32.5418C31.8511 32.5291 31.8777 32.5163 31.9046 32.503C31.9051 32.503 31.906 32.5026 31.9065 32.5021C31.8968 32.5106 31.8882 32.5186 31.8785 32.5272C31.9065 32.5144 31.9353 32.5012 31.9631 32.4875C31.991 32.4756 32.018 32.4614 32.0449 32.4472C31.98 32.4979 31.9054 32.5354 31.837 32.5813C31.9626 32.5395 32.1031 32.5149 32.1998 32.4187C32.3402 32.2751 32.4904 32.1377 32.6082 31.9746C32.7203 31.813 32.8411 31.6567 32.9421 31.488C33.0605 31.27 33.1697 31.0473 33.2812 30.826C33.3876 30.5924 33.4775 30.3527 33.5862 30.12C33.6771 29.8987 33.7566 29.6727 33.8576 29.4551C33.631 29.7442 33.4376 30.056 33.2302 30.3579H33.2293V30.3584V30.3582Z" fill="white"/>
<path d="M28.0342 33.0718C27.9167 32.8321 27.9658 32.5094 27.9913 32.2217C27.9976 32.118 28.0129 32.0151 28.0221 31.9118C28.0221 31.9034 28.0154 31.8958 28.0068 31.8947C27.998 31.8934 27.9899 31.8991 27.9876 31.9071C27.9871 31.9109 27.9871 31.9142 27.9866 31.918C27.9708 31.9356 27.9674 31.9806 27.9525 32.008C27.8707 32.2733 27.7692 32.5444 27.7736 32.825C27.8025 33.2984 28.1767 33.5448 28.6362 33.4207C28.3947 33.3908 28.1311 33.297 28.0353 33.0714H28.0343V33.0718H28.0342Z" fill="white"/>
<path d="M36.1665 24.8039C36.0198 25.1527 35.9875 25.539 36.0107 25.9133C36.0213 26.0493 36.0371 26.1858 36.0656 26.3188C36.067 26.2956 36.0719 26.2553 36.0753 26.2264C36.0797 26.2444 36.0841 26.2624 36.0878 26.2791C36.0892 26.1976 36.0955 26.1165 36.1008 26.0359C36.149 25.7132 36.2148 25.3616 36.2937 25.0337C36.3245 24.917 36.3476 24.7887 36.4177 24.6981C36.4606 24.6369 36.5855 24.5805 36.6106 24.5711C36.7535 24.5081 36.878 24.5095 37.0329 24.4905C36.6975 24.4099 36.3002 24.4364 36.1651 24.8038H36.1665V24.8039Z" fill="white"/>
<path d="M43.043 26.0969C43.2027 26.0713 43.3508 25.9974 43.4615 25.8809C43.3109 25.9292 43.167 25.9984 43.043 26.0969Z" fill="white"/>
<path d="M44.8138 23.5697C44.8066 23.5361 44.7985 23.5023 44.7907 23.4688C44.7805 23.5849 44.77 23.6649 44.7556 23.7692C44.7556 23.7717 44.7551 23.7749 44.7547 23.7779C44.6464 24.3711 44.5334 24.6545 44.2346 25.1214C44.1345 25.2877 44.0633 25.3641 43.9421 25.5052C43.8723 25.5852 43.8137 25.6763 43.7305 25.7445C43.867 25.6834 43.9801 25.581 44.1052 25.5018C44.3333 25.3459 44.5213 25.1351 44.6696 24.9052C44.8884 24.5001 44.9155 24.0124 44.8135 23.5698H44.814L44.8138 23.5697Z" fill="white"/>
<path d="M47.2584 23.0507C47.2334 22.963 47.2069 22.8763 47.181 22.7891C47.1844 22.9777 47.1867 23.1667 47.1958 23.3554C47.2088 23.5956 47.2243 23.8369 47.191 24.0767C47.1919 24.1411 47.1295 24.4155 46.9923 24.5833C46.9221 24.6728 46.7893 24.8302 46.6426 24.9017C46.9226 24.848 47.1738 24.6514 47.3075 24.405C47.5259 23.9766 47.3796 23.4862 47.2579 23.0512H47.2584V23.0507Z" fill="white"/>
<path d="M51.9059 16.7805C51.9295 16.6914 51.9493 16.6008 51.9604 16.509C52.0278 16.1313 52.057 15.7105 51.8343 15.3802C51.7622 15.2873 51.6549 15.2318 51.5432 15.1944C51.5211 15.1873 51.5057 15.2161 51.524 15.23C51.6106 15.2935 51.6899 15.3661 51.7332 15.4618C51.8116 15.6807 51.7991 15.786 51.829 15.9826C51.8304 16.0086 51.8329 16.0347 51.8352 16.0607C51.857 16.3066 51.8689 16.5535 51.8944 16.7994C51.8944 16.8056 51.8944 16.8118 51.8948 16.8184C51.8948 16.8175 51.8953 16.8165 51.8958 16.815C51.8958 16.8168 51.8958 16.8198 51.8962 16.8216C51.8997 16.8079 51.902 16.7946 51.9048 16.7809L51.9058 16.7805H51.9059Z" fill="white"/>
<path d="M52.6343 20.1226C52.6012 19.9817 52.5636 19.8415 52.5217 19.7031C52.5064 19.9779 52.4881 20.5092 52.8999 20.458C52.7287 20.4258 52.6589 20.2774 52.6343 20.1226Z" fill="white"/>
<path d="M45.5445 15.8023C45.557 15.8459 45.57 15.89 45.5853 15.9327C45.583 15.8834 45.5819 15.8336 45.5814 15.7843C45.579 15.5445 45.6261 15.308 45.6954 15.0796C45.7425 14.9195 45.818 14.7664 45.9552 14.6641C45.5387 14.8447 45.4309 15.4052 45.544 15.8028H45.5445V15.8023Z" fill="white"/>
<path d="M33.5204 18.7883C33.2005 19.257 33.3722 19.864 33.5011 20.3707C33.5165 20.4129 33.5646 20.6161 33.5579 20.51C33.5637 20.2318 33.5689 19.9531 33.5632 19.6745C33.5667 19.3859 33.5199 19.0897 33.6536 18.8301C33.7387 18.6917 33.8764 18.5951 34.001 18.4941C33.8269 18.5652 33.6392 18.6378 33.5204 18.7889V18.7885V18.7883Z" fill="white"/>
<path d="M31.3162 32.7104C31.1526 32.7507 31.0276 32.8047 30.8809 32.8559C31.1205 32.8753 31.3614 32.8161 31.566 32.6915C31.591 32.6773 31.6151 32.662 31.6396 32.6465C31.5314 32.6641 31.4227 32.6835 31.3163 32.71V32.7104H31.3162Z" fill="white"/>
<path d="M31.3378 19.2892C31.0891 19.0537 30.6643 18.7039 30.3238 18.9665C30.1578 19.1172 30.1506 19.3531 30.1476 19.5602C30.1428 19.8336 30.1525 20.1085 30.1889 20.3795C30.2198 20.1122 30.2698 19.8379 30.3106 19.5649C30.3366 19.3479 30.3804 19.1545 30.4799 19.0858C30.5121 19.0645 30.539 19.0564 30.5776 19.0513C30.7916 19.0376 30.9904 19.1328 31.1775 19.2271C31.2443 19.2588 31.3103 19.291 31.3752 19.3257C31.3627 19.3134 31.3497 19.3006 31.3372 19.2887H31.3377V19.2892H31.3378Z" fill="white"/>
<path d="M35.504 24.5806C35.4997 24.5986 35.4781 24.6806 35.4718 24.7137C35.4656 24.7469 35.4549 24.8336 35.4434 24.853C35.5743 24.5991 35.6969 24.3402 35.7975 24.0726C35.9581 23.6252 36.0381 23.1291 35.9004 22.6651C35.8158 22.4457 35.6883 22.3722 35.4742 22.3594C35.4593 22.3585 35.4545 22.3788 35.4684 22.384C35.4781 22.3879 35.4867 22.3907 35.4962 22.3945C35.6295 22.4447 35.7257 22.5608 35.747 22.6998C35.772 22.8637 35.7725 23.0608 35.7614 23.1964C35.7143 23.7641 35.6656 23.9139 35.5328 24.4612C35.5236 24.4991 35.5145 24.5384 35.5045 24.5801" fill="white"/>
<path d="M38.5299 20.4795C38.63 20.4904 38.7492 20.4628 38.8234 20.5269C38.8451 20.5615 38.8291 20.6069 38.8248 20.6454C38.8036 20.7482 38.7652 20.8455 38.7367 20.9464C38.6347 21.314 38.6996 21.698 38.7963 22.0605C38.803 21.8246 38.8074 21.5876 38.8299 21.352C38.8535 21.1529 38.8795 21.0136 38.9257 20.7818C38.9873 20.4268 38.8478 20.3799 38.5298 20.479H38.5293L38.5298 20.4795H38.5299Z" fill="white"/>
<path d="M27.6886 17.8114C27.5746 17.5527 27.3553 17.0873 27.0026 17.1826C26.8506 17.2177 26.7106 17.3015 26.6211 17.429C26.7365 17.3271 26.8953 17.2773 27.019 17.2689C27.0638 17.267 27.1108 17.265 27.1537 17.2803C27.2047 17.302 27.2446 17.3419 27.283 17.3803C27.3908 17.4869 27.4808 17.6091 27.5683 17.7324C27.6362 17.8319 27.7065 17.9304 27.7723 18.0315C27.7473 17.957 27.719 17.8842 27.6882 17.8116H27.6886V17.8114Z" fill="white"/>
<path d="M49.1193 23.6783C48.8648 23.7404 48.5718 23.6996 48.5477 23.3906C48.4669 23.7697 48.8653 23.8991 49.1476 23.7096C49.1775 23.6906 49.2062 23.6717 49.2342 23.65C49.1962 23.6604 49.1582 23.6694 49.1193 23.6779V23.6783Z" fill="white"/>
<path d="M23.2559 19.0083C23.4137 18.9174 23.5825 18.8354 23.7176 18.7188C23.5454 18.7804 23.3727 18.8647 23.2559 19.0083Z" fill="white"/>
<path d="M41.4883 26.4821C41.2381 26.5038 41.0264 26.3309 40.9115 26.1594C40.8441 26.0329 40.8095 25.8301 40.7638 25.6623C40.6787 25.2865 40.606 24.9013 40.5666 24.5293C40.5132 24.8848 40.5045 25.2477 40.5353 25.6055C40.5633 25.8272 40.5877 26.0585 40.6964 26.259C40.9402 26.6229 41.3574 26.7632 41.7384 26.5001C41.7904 26.467 41.8418 26.4328 41.8919 26.3969C41.7591 26.4329 41.6258 26.4755 41.4877 26.4818H41.4882V26.4823L41.4883 26.4821Z" fill="white"/>
<path d="M29.019 26.7636C29.0123 26.746 29.0093 26.7282 29.008 26.7588C28.9907 26.899 29.009 27.0456 29.0817 27.1692C29.0803 27.0317 29.0687 26.8933 29.0192 26.7636H29.019Z" fill="white"/>
<path d="M31.0977 31.8164C31.1415 31.8027 31.1823 31.7809 31.2184 31.752C31.1746 31.7661 31.1338 31.788 31.0977 31.8164Z" fill="#FF6B00"/>
<path d="M27.9057 29.3611C27.8085 29.1809 27.5723 29.1896 27.3934 29.1999C27.1058 29.2175 26.8161 29.2467 26.5352 29.3098C26.833 29.3221 27.1303 29.3534 27.4286 29.3638C27.5994 29.37 27.675 29.3833 27.726 29.4207C27.7278 29.4226 27.7308 29.4246 27.7327 29.4264C27.7663 29.46 27.774 29.46 27.7948 29.5264C27.8001 29.5406 27.7982 29.5995 27.7982 29.6098C27.7982 29.7918 27.788 29.8861 27.7597 30.0215C27.7324 30.1585 27.7048 30.3163 27.6886 30.4453C27.766 30.2325 27.8598 30.0258 27.9257 29.8098C27.9579 29.6643 27.9637 29.5013 27.9074 29.3611H27.906H27.9057Z" fill="#FF6B00"/>
<path d="M27.3691 31.7583C27.5087 31.4039 27.5928 31.0304 27.6088 30.6504C27.4727 31.0063 27.3812 31.3774 27.3691 31.7583Z" fill="#FF6B00"/>
<path d="M25.4832 21.7418C25.3518 21.6224 24.9948 21.4239 24.7832 21.2812C24.9876 21.5377 25.2296 21.7617 25.4736 21.9802C25.5126 22.0153 25.5154 22.075 25.4794 22.1133C25.3953 22.2029 25.2822 22.2684 25.1902 22.3483C25.158 22.3787 24.9454 22.5289 25.0479 22.4772C25.2657 22.3725 25.5251 22.3 25.6834 22.11C25.783 21.9549 25.5925 21.8261 25.4822 21.7418H25.4832Z" fill="#FF6B00"/>
<path d="M24.1783 23.2422C24.0209 23.2944 23.9185 23.4075 23.8371 23.5142C23.6365 23.7838 23.6293 24.1085 23.7578 24.3966C23.7732 24.4316 23.7887 24.4668 23.8054 24.5013C23.8045 24.4643 23.8049 24.4273 23.8045 24.3903C23.8035 24.3127 23.801 24.2136 23.7982 24.1174C23.791 23.8535 23.8728 23.5918 24.042 23.3801C24.0868 23.3237 24.1336 23.2744 24.1783 23.2422Z" fill="#FF6B00"/>
<path d="M23.8301 24.6602C23.8421 24.7757 23.8811 24.9065 23.9522 24.9915C23.9321 24.8748 23.8969 24.7597 23.8301 24.6602Z" fill="#FF6B00"/>
<path d="M36.9481 28.0629C36.7023 28.1198 36.4554 28.1728 36.2067 28.2155C35.9618 28.2524 35.7203 28.3054 35.4778 28.3558L35.5173 28.3511C35.3566 28.37 35.2046 28.4369 35.0906 28.542C34.8889 28.7007 34.8173 28.9395 34.735 29.1614C34.6282 29.4505 34.4916 29.7305 34.4012 30.0243C34.3632 30.3479 34.7222 29.62 34.926 29.2429C35.0342 29.0539 35.1828 28.8705 35.32 28.7515C35.432 28.6606 35.4538 28.6582 35.5163 28.6349C35.5467 28.6241 35.5769 28.6136 35.6077 28.6041C35.8309 28.5358 36.0492 28.4538 36.2706 28.3809C36.5038 28.298 36.7265 28.1933 36.945 28.0825C36.9682 28.0706 36.9921 28.0592 37.0153 28.0469C36.9932 28.0521 36.971 28.0574 36.9485 28.0624H36.948V28.0629H36.9481Z" fill="#FF6B00"/>
<path d="M32.4282 18.579C32.4282 18.579 32.4294 18.5785 32.4304 18.5781H32.4312C32.4312 18.5781 32.4295 18.579 32.4277 18.5794L32.4282 18.579Z" fill="#FF6B00"/>
<path d="M32.4851 18.5464C32.4462 18.5639 32.3528 18.6046 32.2119 18.6425C32.1018 18.6724 31.9852 18.6701 31.8843 18.6174C31.7203 18.5316 31.5582 18.4416 31.4043 18.3397C31.4952 18.4601 31.6015 18.5681 31.7098 18.6729C31.7184 18.68 31.7267 18.688 31.7353 18.6957C31.9103 18.861 32.1659 18.9194 32.3919 18.834C32.6772 18.7274 32.9519 18.5027 33.1723 18.3502C33.2276 18.3084 33.283 18.2664 33.3382 18.2246C33.0399 18.318 32.772 18.4217 32.4853 18.5454V18.5464H32.4851Z" fill="#FF6B00"/>
<path d="M41.5822 14.9604C41.079 15.078 40.6075 15.2803 40.1336 15.4737C40.1047 15.479 40.0763 15.486 40.0532 15.5016C40.0307 15.5343 40.0738 15.5352 40.0975 15.5315C40.3939 15.4774 40.6829 15.3959 40.9735 15.3196C41.4271 15.1888 41.7644 15.041 42.1878 14.849C42.2017 14.8429 42.2147 14.8367 42.2286 14.8301C42.0112 14.8652 41.7947 14.9073 41.5815 14.9609H41.582V14.9604H41.5822Z" fill="#FF6B00"/>
<path d="M25.9996 29.2303C25.8239 29.1924 25.622 29.0963 25.5464 28.9972C25.4704 28.9067 25.3555 28.7337 25.2593 28.5802C25.2136 28.5072 25.1689 28.43 25.1135 28.3651C25.1049 28.3642 25.1121 28.3704 25.1144 28.3742C25.2285 28.6249 25.3059 28.9699 25.5305 29.1428C25.683 29.2456 25.8904 29.2878 26.0731 29.2736C26.1125 29.2712 26.1524 29.2666 26.192 29.2622C26.128 29.2522 26.0636 29.2442 26.0001 29.2314H25.9996V29.2305V29.2303Z" fill="#FF6B00"/>
<path d="M44.7739 15.5019C44.6883 15.2592 44.529 15.0331 44.2953 14.9091C44.0985 14.8129 43.9652 14.8271 43.7242 14.8376C43.5015 14.8556 43.2912 14.9314 43.0762 14.9873C43.2575 14.9826 43.438 14.9595 43.6199 14.9746C43.7835 14.9807 44.0438 15.0485 44.1038 15.0878C44.3891 15.283 44.4487 15.4792 44.5887 15.9265C44.6608 16.2099 44.6675 16.3364 44.6696 16.7355C44.6552 17.0502 44.6022 17.3614 44.5959 17.6776C44.7085 17.2525 44.8796 16.8389 44.9033 16.3957C44.9316 16.0925 44.8836 15.7863 44.7723 15.5029H44.7733L44.7738 15.502L44.7739 15.5019Z" fill="white"/>
<path d="M41.0194 18.4875C41.0136 18.3586 41.0073 18.2307 41.0015 18.1018C40.9909 17.7991 40.9559 17.499 40.8822 17.2072C40.8034 16.8512 40.5797 16.1219 40.2578 15.9842C40.1289 15.9458 39.9956 15.997 39.8733 16.0438C39.7131 16.1148 39.5549 16.1916 39.3984 16.2731C39.6736 16.2185 39.98 16.1171 40.1719 16.1641C40.2523 16.1926 40.3374 16.3708 40.4039 16.5267C40.5439 16.8802 40.6709 17.2305 40.8138 17.6958C40.8822 17.9484 40.9384 18.2052 41.0101 18.4573C41.0141 18.4697 41.0164 18.482 41.0203 18.4934V18.4877H41.0194V18.4875Z" fill="white"/>
<path d="M48.0208 20.226C47.8178 20.1422 47.6662 19.9374 47.634 19.7246C47.5475 19.9678 47.7436 20.2615 48.0116 20.2553C48.0391 20.2553 48.0665 20.2535 48.0934 20.2487C48.0683 20.2425 48.0442 20.2345 48.0197 20.2254H48.0202L48.0206 20.2259L48.0208 20.226Z" fill="white"/>
<path d="M45.2591 25.8884C44.9378 25.9576 44.6203 26.0457 44.3023 26.1286C44.0328 26.2092 43.7711 26.3092 43.5254 26.4186C43.9141 26.3319 44.309 26.2627 44.6872 26.1396C44.8965 26.0665 45.0956 25.9704 45.2973 25.8809C45.2848 25.8832 45.2718 25.8861 45.2593 25.8884H45.2591Z" fill="#FF6B00"/>
<path d="M48.1766 24.5479C48.0442 24.5929 47.9288 24.6735 47.8027 24.7299C47.9961 24.7171 48.1784 24.628 48.3349 24.5189C48.3522 24.5071 48.3699 24.4943 48.3873 24.4824C48.3161 24.5005 48.2454 24.5222 48.1775 24.5484H48.177L48.1766 24.5479Z" fill="#FF6B00"/>
<path d="M48.2436 22.0932C48.2932 21.9511 48.3943 21.588 48.4414 21.3657C48.4884 21.1278 48.5005 20.8828 48.5343 20.6562C48.3544 21.1111 48.2297 21.6031 48.2432 22.093H48.2436V22.0932Z" fill="#FF6B00"/>
<path d="M53.3935 15.3151C53.1492 15.1995 52.8933 15.0961 52.6238 15.0251C52.3448 14.9563 52.0543 14.926 51.7637 14.918C52.2221 15.0525 52.6796 15.1919 53.1559 15.281C53.2484 15.299 53.3411 15.3166 53.4331 15.3351C53.4201 15.3289 53.4071 15.3223 53.3942 15.3157H53.3937V15.3152L53.3935 15.3151Z" fill="#FF6B00"/>
<path d="M50.1161 16.8603C50.1161 16.8565 50.1161 16.8532 50.1156 16.8494C50.0688 16.376 49.9664 15.9073 49.813 15.4562C49.6138 14.8644 49.1429 14.5274 48.5039 14.644C48.5709 14.6691 48.6785 14.6696 48.7628 14.6966C48.8167 14.7112 48.9181 14.753 48.9936 14.797C48.9985 14.8004 49.0038 14.8032 49.008 14.8066C49.2683 14.9947 49.3467 15.1085 49.467 15.3619C49.4684 15.3658 49.4709 15.3695 49.4718 15.3733C49.6969 15.9515 49.9173 16.532 50.1256 17.1167C50.1674 17.267 50.1194 16.9258 50.1159 16.8603H50.1161Z" fill="white"/>
<path d="M38.4824 27.1681C38.6388 27.153 38.7851 27.0909 38.9087 26.9961C38.7557 27.0226 38.6104 27.0815 38.4824 27.1681Z" fill="white"/>
<path d="M50.5563 20.9545C50.5524 20.9312 50.5183 20.9322 50.5155 20.9554C50.4805 21.292 50.4731 21.6151 50.4135 21.8941C50.3716 22.1321 50.2696 22.3922 50.2057 22.5339C50.2032 22.5401 50.2057 22.5349 50.2124 22.5173C50.1551 22.6586 49.9945 22.842 49.9352 22.9253C49.9255 22.9372 49.9174 22.948 49.9083 22.9598C49.8592 23.0092 49.8077 23.0565 49.7597 23.1072C49.779 23.0967 49.7977 23.0864 49.8165 23.0759C49.7891 23.111 49.7597 23.146 49.7266 23.1868C49.7597 23.1656 49.7935 23.1441 49.8271 23.1229C49.9994 23.0092 50.1734 22.892 50.3203 22.7475C50.4276 22.6249 50.5104 22.4806 50.5725 22.3319C50.7491 21.8894 50.626 21.4078 50.5567 20.9548V20.9543L50.5563 20.9545Z" fill="white"/>
<path d="M39.7535 25.153C39.7317 25.0658 39.7062 24.9534 39.6828 24.8809C39.6779 25.0334 39.677 25.1857 39.6818 25.3382C39.6862 25.5188 39.6607 25.6031 39.6308 25.7789C39.6044 25.9202 39.5817 26.0632 39.5275 26.1973C39.5015 26.248 39.4269 26.4247 39.3638 26.5338C39.2489 26.6916 39.1555 26.8334 38.9805 26.9466C39.1754 26.8973 39.3321 26.7608 39.4697 26.6226C39.5703 26.4999 39.6501 26.3581 39.7189 26.2154C39.7815 26.0771 39.7963 25.923 39.8098 25.7738C39.8353 25.5644 39.8103 25.3553 39.7544 25.153H39.7535Z" fill="white"/>
<path d="M55.1612 17.3705C54.9679 17.5112 54.8013 17.2758 54.709 17.1289C54.7254 17.2232 54.7514 17.3209 54.8153 17.3952C54.9159 17.5198 55.0863 17.5297 55.181 17.3933C55.1964 17.3739 55.2109 17.3545 55.2239 17.3337C55.2037 17.3474 55.1831 17.3593 55.1618 17.3711H55.1613V17.3707L55.1612 17.3705Z" fill="white"/>
<path d="M54.3221 18.6088C54.2686 18.6476 54.2014 18.6998 54.1316 18.6736C54.0287 18.6225 53.968 18.4955 53.9286 18.3926C53.8982 18.6348 54.1219 18.928 54.3263 18.6513C54.3456 18.6248 54.36 18.5949 54.372 18.5641C54.3562 18.5792 54.3398 18.594 54.3224 18.6072L54.3219 18.6086L54.3221 18.6088Z" fill="white"/>
<path d="M45.1115 14.3762C44.905 14.397 44.7068 14.4605 44.517 14.5416C44.5005 14.5516 44.4256 14.569 44.4602 14.5909C44.465 14.5904 44.4693 14.589 44.4741 14.5875C44.475 14.5875 44.475 14.5884 44.476 14.5889C44.7492 14.5382 45.0153 14.461 45.2798 14.3761C45.2937 14.3718 45.3067 14.3676 45.3206 14.3633C45.2504 14.3642 45.1806 14.3681 45.1109 14.3756H45.1113V14.3761L45.1115 14.3762Z" fill="#FF6B00"/>
<path d="M42.6187 21.9492C42.5721 22.361 42.5673 22.7772 42.4316 23.1733C42.7779 22.7856 42.7659 22.4184 42.6187 21.9492Z" fill="#FF6B00"/>
<path d="M37.2577 23.6515C37.1423 23.4448 37.0452 23.2277 36.93 23.0208C36.7805 22.7539 36.6169 22.4844 36.5703 22.1777C36.4456 22.7587 36.7993 23.3306 37.2246 23.7065C37.261 23.7373 37.2982 23.7677 37.3361 23.7965C37.3097 23.7481 37.2827 23.6999 37.2568 23.651H37.2573L37.2577 23.6515Z" fill="#FF6B00"/>
<path d="M31.7742 28.4018C31.6289 28.5164 31.497 28.6516 31.3359 28.7443C31.5707 28.7078 31.7886 28.5856 31.9758 28.4448C32.1587 28.2941 32.288 28.0918 32.391 27.8828C32.1898 28.0614 31.9816 28.2306 31.7742 28.4021V28.4016V28.4018Z" fill="#FF6B00"/>
<path d="M54.7363 18.5536C54.807 18.513 54.8865 18.3897 54.9398 18.2949C54.8446 18.3561 54.7782 18.4509 54.7363 18.5536Z" fill="#FF6B00"/>
<path d="M42.4102 14.7517C42.59 14.7631 42.7685 14.7143 42.9349 14.6485C42.7536 14.6466 42.5794 14.6912 42.4102 14.7517Z" fill="#FF6B00"/>
<path d="M37.3184 27.999C37.545 28.0043 37.7691 27.9593 37.9773 27.8734C37.7507 27.8687 37.5251 27.907 37.3184 27.999Z" fill="#FF6B00"/>
<path d="M36.2383 17.0577C36.426 16.9862 36.6073 16.9493 36.7973 16.8516C36.6024 16.8819 36.3889 16.9269 36.2383 17.0577Z" fill="#FF6B00"/>
<path d="M39.8262 27.279C40.1919 27.2733 40.5458 27.1771 40.884 27.0449C40.5174 27.0468 40.1643 27.1454 39.8262 27.279Z" fill="#FF6B00"/>
<path d="M28.4506 30.1806C28.4506 30.2299 28.4418 30.2696 28.4684 30.1967C28.5155 30.081 28.579 29.9417 28.6335 29.8095C28.6724 29.7204 28.7027 29.6247 28.7697 29.5508C28.556 29.6796 28.4619 29.9442 28.4508 30.1806H28.4506Z" fill="white"/>
<path d="M31.1985 23.9043C31.2697 24.1455 31.211 24.3957 31.1523 24.6336C31.3318 24.4208 31.3856 24.1299 31.1985 23.9043Z" fill="white"/>
<path d="M29.1743 18.0286C29.0665 17.9669 28.9622 17.885 28.8385 17.8594C28.6533 17.8585 28.785 18.0854 28.8255 18.1731C28.8856 18.2878 28.9495 18.4005 29.003 18.5186C28.9982 18.3442 28.9444 18.177 28.8795 18.0158C28.8727 17.9968 28.8632 17.9788 28.8563 17.9598C28.9256 17.9665 29.0218 18.0048 29.0925 18.0129C29.1199 18.0181 29.1474 18.0233 29.1752 18.028H29.1748L29.1743 18.0284V18.0286Z" fill="white"/>
<path d="M37.7195 19C37.6917 19.2569 37.6782 19.5151 37.6465 19.7715C37.7855 19.5365 37.7846 19.2573 37.7195 19Z" fill="white"/>
<path d="M35.4374 27.4906C35.3577 27.611 35.3051 27.7494 35.3067 27.8948C35.3711 27.7688 35.4188 27.6646 35.4409 27.5195C35.4418 27.5023 35.4578 27.4521 35.4365 27.4909H35.437L35.4374 27.4905V27.4906Z" fill="white"/>
<path d="M44.7461 19.8125C44.789 19.9584 44.8485 20.0991 44.9327 20.2267C44.9044 20.076 44.8437 19.9324 44.7461 19.8125Z" fill="white"/>
<path d="M33.1197 25.9616C33.1201 25.9488 33.1206 25.9355 33.1211 25.9232C33.1197 25.927 33.1186 25.9307 33.1167 25.9351C33.1114 25.8716 33.1057 25.8076 33.1009 25.7441C33.099 25.7542 33.0965 25.764 33.0946 25.774C33.059 25.9606 33.0397 26.12 33.0163 26.2801C33.0095 26.31 33.0019 26.3388 32.9951 26.3687C32.9754 26.4801 32.9273 26.6212 32.8846 26.7365C32.8644 26.7749 32.8442 26.8132 32.8245 26.8516C32.6984 27.0966 32.6099 27.1667 32.3651 27.2975C32.2049 27.3677 32.0721 27.462 31.9004 27.4818C31.9224 27.4866 31.9447 27.4889 31.9672 27.4905C31.9547 27.4943 31.9426 27.4976 31.9296 27.5009C32.0668 27.511 32.2024 27.4777 32.3352 27.4469C32.4574 27.4193 32.5821 27.3909 32.6922 27.3293C32.8167 27.2436 32.9346 27.1317 32.9933 26.9918C33.0342 26.8833 33.0558 26.7685 33.0848 26.6568C33.1045 26.5559 33.1084 26.453 33.1107 26.3506C33.1121 26.3416 33.1142 26.3331 33.1151 26.3237C33.1334 26.2038 33.1295 26.0835 33.1204 25.9636L33.12 25.9617L33.1197 25.9616Z" fill="white"/>
<path d="M23.496 30.0346C22.8874 30.188 22.3054 30.1933 21.6497 30.2118C21.0584 30.2341 20.4677 30.2894 19.8789 30.3511C21.1004 30.533 22.392 30.6378 23.5447 30.0624C23.6024 30.0359 23.6601 30.0088 23.7169 29.9805C23.6432 29.9994 23.5692 30.017 23.4951 30.0341H23.4956L23.496 30.0346Z" fill="white"/>
<path d="M17.8755 28.1947C17.6743 28.3226 17.4757 28.4573 17.2958 28.6142C17.1635 28.7308 17.0394 28.8558 16.9004 28.9649C17.2877 28.8046 17.6027 28.5157 17.8803 28.2123C17.9144 28.1726 17.9438 28.1493 17.875 28.1952H17.8755V28.1947Z" fill="white"/>
<path d="M21.7671 23.9215C21.45 24.0608 21.2023 24.3195 20.9992 24.591C20.9714 24.6319 20.9443 24.673 20.9199 24.7157C20.9603 24.6748 21.0008 24.636 21.0435 24.5981C21.2667 24.4095 21.4973 24.2314 21.7555 24.0868C22.048 23.9371 22.3597 23.813 22.6791 23.7324C22.3688 23.7347 22.0538 23.8044 21.7675 23.921L21.7671 23.9215Z" fill="white"/>
<path d="M21.6814 25.5272C21.5567 25.4788 21.4202 25.4361 21.2845 25.447C21.4062 25.4717 21.5145 25.5413 21.6174 25.6073C21.7189 25.6699 21.8031 25.777 21.7704 25.9277C21.7391 26.0944 21.6385 26.2329 21.5409 26.3788C21.3967 26.5869 21.2498 26.7935 21.1017 26.9987C21.0843 27.0234 21.0662 27.0476 21.0488 27.0718C21.2192 26.9353 21.3856 26.7941 21.539 26.6391C21.7069 26.4571 21.896 26.2671 21.9402 26.0159C21.9884 25.815 21.8869 25.5928 21.6809 25.5273H21.6814V25.5272Z" fill="#FF6B00"/>
</g>
<defs>
<clipPath id="clip0_0_10">
<rect width="42" height="22" fill="white" transform="translate(15 13)"/>
</clipPath>
</defs>
</svg>
