<svg width="20" height="20" viewBox="0 0 20 20" fill="none" xmlns="http://www.w3.org/2000/svg">
<path d="M16.9507 7.7671L5.28403 1.93377C4.8236 1.70461 4.30371 1.62302 3.79522 1.70014C3.28674 1.77726 2.81441 2.00932 2.44264 2.3647C2.07086 2.72007 1.81774 3.18145 1.71777 3.68594C1.61781 4.19043 1.67586 4.71348 1.88403 5.18377L3.88403 9.65877C3.92941 9.76696 3.95278 9.88311 3.95278 10.0004C3.95278 10.1178 3.92941 10.2339 3.88403 10.3421L1.88403 14.8171C1.71461 15.1977 1.64299 15.6146 1.67568 16.0299C1.70836 16.4452 1.84431 16.8458 2.07118 17.1952C2.29805 17.5446 2.60863 17.8318 2.97471 18.0306C3.34079 18.2295 3.75076 18.3337 4.16736 18.3338C4.55755 18.3299 4.94194 18.2388 5.29236 18.0671L16.959 12.2338C17.3729 12.0256 17.7207 11.7065 17.9638 11.3122C18.2068 10.9178 18.3355 10.4637 18.3355 10.0004C18.3355 9.53719 18.2068 9.08306 17.9638 8.6887C17.7207 8.29435 17.3729 7.97528 16.959 7.7671H16.9507ZM16.209 10.7421L4.54236 16.5754C4.38916 16.649 4.21714 16.674 4.04935 16.647C3.88156 16.62 3.72603 16.5424 3.60362 16.4245C3.48121 16.3066 3.39776 16.1541 3.36447 15.9875C3.33118 15.8208 3.34963 15.648 3.41736 15.4921L5.40903 11.0171C5.43481 10.9573 5.45707 10.8961 5.47569 10.8338H11.2174C11.4384 10.8338 11.6503 10.746 11.8066 10.5897C11.9629 10.4334 12.0507 10.2214 12.0507 10.0004C12.0507 9.77942 11.9629 9.56746 11.8066 9.41118C11.6503 9.2549 11.4384 9.1671 11.2174 9.1671H5.47569C5.45707 9.10474 5.43481 9.04352 5.40903 8.98377L3.41736 4.50877C3.34963 4.3529 3.33118 4.18006 3.36447 4.01341C3.39776 3.84676 3.48121 3.69427 3.60362 3.57639C3.72603 3.45851 3.88156 3.38087 4.04935 3.35389C4.21714 3.32691 4.38916 3.35187 4.54236 3.42543L16.209 9.25877C16.3455 9.3287 16.4601 9.43494 16.5401 9.5658C16.6201 9.69666 16.6624 9.84706 16.6624 10.0004C16.6624 10.1538 16.6201 10.3042 16.5401 10.4351C16.4601 10.5659 16.3455 10.6722 16.209 10.7421V10.7421Z" fill="#007CFF"/>
</svg>
